<svg width="24" height="24" viewBox="0 0 24 24" fill="none" xmlns="http://www.w3.org/2000/svg">
<path d="M11.9999 13.0004C12.5522 13.0004 12.9999 12.5527 12.9999 12.0004C12.9999 11.4481 12.5522 11.0004 11.9999 11.0004C11.4476 11.0004 10.9999 11.4481 10.9999 12.0004C10.9999 12.5527 11.4476 13.0004 11.9999 13.0004Z" stroke="black" stroke-width="2" stroke-linecap="round" stroke-linejoin="round"/>
<path d="M20.1999 20.2004C22.2399 18.1704 20.2199 12.8404 15.6999 8.30037C11.1599 3.78037 5.82989 1.76037 3.79989 3.80037C1.75989 5.83037 3.77989 11.1604 8.29989 15.7004C12.8399 20.2204 18.1699 22.2404 20.1999 20.2004Z" stroke="black" stroke-width="2" stroke-linecap="round" stroke-linejoin="round"/>
<path d="M15.6999 15.7004C20.2199 11.1604 22.2399 5.83037 20.1999 3.80037C18.1699 1.76037 12.8399 3.78037 8.29989 8.30037C3.77989 12.8404 1.75989 18.1704 3.79989 20.2004C5.82989 22.2404 11.1599 20.2204 15.6999 15.7004Z" stroke="black" stroke-width="2" stroke-linecap="round" stroke-linejoin="round"/>
</svg>
