<svg width="24" height="24" viewBox="0 0 24 24" fill="none" xmlns="http://www.w3.org/2000/svg">
<path d="M8.99997 9.00031C8.35997 9.64031 7.47897 9.95431 6.59797 10.1653C5.16853 10.5076 3.91447 11.3628 3.07375 12.5685C2.23303 13.7741 1.86412 15.2465 2.03704 16.7062C2.20995 18.1658 2.91265 19.5112 4.01181 20.4871C5.11097 21.463 6.53011 22.0014 7.99997 22.0003C9.83885 22.0026 11.6601 21.6416 13.359 20.938C15.058 20.2344 16.6012 19.2021 17.9 17.9003M10.75 5.09331C11.394 3.92924 12.4067 3.01223 13.6288 2.48647C14.8508 1.96072 16.213 1.85602 17.5011 2.18886C18.7891 2.52169 19.93 3.27318 20.7444 4.32516C21.5588 5.37714 22.0005 6.66994 22 8.00031C22 10.4113 21.39 12.6803 20.317 14.6603M5.34097 10.6203C5.60402 11.2145 6.00786 11.7356 6.51755 12.1386C7.02724 12.5416 7.62743 12.8144 8.26622 12.9333C8.905 13.0523 9.56316 13.0138 10.1837 12.8213C10.8043 12.6288 11.3687 12.2879 11.828 11.8283M10.62 5.34131C11.5289 5.74528 12.2554 6.47223 12.659 7.38131M1.99997 2.00031L22 22.0003" stroke="black" stroke-width="2" stroke-linecap="round" stroke-linejoin="round"/>
</svg>
