<svg width="24" height="24" viewBox="0 0 24 24" fill="none" xmlns="http://www.w3.org/2000/svg">
<path d="M5.34097 10.6197C5.60461 11.213 6.00869 11.7332 6.51833 12.1354C7.02797 12.5376 7.62784 12.8097 8.26615 12.9282C8.90446 13.0467 9.56202 13.008 10.1821 12.8156C10.8021 12.6231 11.366 12.2826 11.825 11.8235C12.284 11.3644 12.6244 10.8005 12.8167 10.1804C13.0091 9.56033 13.0476 8.90276 12.929 8.26447C12.8103 7.62618 12.5381 7.02636 12.1358 6.5168C11.7336 6.00724 11.2133 5.60325 10.62 5.33972M10.165 6.59772C9.95397 7.47772 9.63997 8.35972 8.99997 8.99972C8.35997 9.63972 7.47897 9.95372 6.59797 10.1647C5.16853 10.5071 3.91447 11.3622 3.07375 12.5679C2.23303 13.7736 1.86412 15.2459 2.03704 16.7056C2.20995 18.1652 2.91265 19.5106 4.01181 20.4865C5.11097 21.4624 6.53011 22.0008 7.99997 21.9997C15.732 21.9997 22 15.7317 22 7.99972C22.0011 6.52986 21.4626 5.11072 20.4867 4.01156C19.5109 2.91241 18.1655 2.20971 16.7058 2.03679C15.2461 1.86388 13.7738 2.23278 12.5681 3.07351C11.3624 3.91423 10.5073 5.16828 10.165 6.59772Z" stroke="black" stroke-width="2" stroke-linecap="round" stroke-linejoin="round"/>
</svg>
