<svg width="24" height="24" viewBox="0 0 24 24" fill="none" xmlns="http://www.w3.org/2000/svg">
<path d="M18.5 6L20.69 10.5C20.8974 11.1463 21.002 11.8212 21 12.5C21.0007 13.5092 20.7661 14.5047 20.3148 15.4074C19.8634 16.3101 19.2078 17.0951 18.4 17.7C15.4 20.2 11 22 6.99996 22C6.4432 21.9992 5.89765 21.8436 5.42434 21.5504C4.95103 21.2572 4.56864 20.8381 4.31996 20.34L2.39996 16.5M15 8.5C15 9.88071 13.8807 11 12.5 11C11.1192 11 9.99996 9.88071 9.99996 8.5C9.99996 7.11929 11.1192 6 12.5 6C13.8807 6 15 7.11929 15 8.5ZM12.5 2C11.1072 1.99917 9.75093 2.44573 8.6311 3.2739C7.51128 4.10207 6.68708 5.26804 6.27996 6.6C5.17996 9.73 5.49996 10.5 3.09996 12.68C2.62172 13.0721 2.27633 13.6024 2.11106 14.1983C1.9458 14.7942 1.96873 15.4266 2.17673 16.009C2.38472 16.5914 2.76761 17.0953 3.27299 17.4517C3.77837 17.8081 4.38154 17.9996 4.99996 18C8.99996 18 13.4 16.2 16.4 13.7C17.4913 12.8815 18.2975 11.7403 18.7043 10.4381C19.1111 9.13591 19.0978 7.73875 18.6664 6.44452C18.235 5.15029 17.4073 4.02461 16.3006 3.22693C15.1938 2.42924 13.8642 2 12.5 2Z" stroke="black" stroke-width="2" stroke-linecap="round" stroke-linejoin="round"/>
</svg>
