<svg width="24" height="24" viewBox="0 0 24 24" fill="none" xmlns="http://www.w3.org/2000/svg">
<path d="M12 13.9004C13.1046 13.9004 14 13.005 14 11.9004C14 10.7958 13.1046 9.90039 12 9.90039C10.8954 9.90039 10 10.7958 10 11.9004C10 13.005 10.8954 13.9004 12 13.9004ZM12 13.9004V15.5004M6.7 3.40039C5.8 5.90039 6.7 8.60039 8.9 10.1004M8.9 10.1004C6.5 9.00039 3.7 9.60039 2 11.6004M8.9 10.1004L10.3 10.9004M17.3 3.40039C18.2 5.90039 17.3 8.60039 15.1 10.1004M15.1 10.1004C17.5 8.90039 20.3 9.50039 22 11.6004M15.1 10.1004L13.7 10.9004M16.7 20.8004C14.1 20.4004 12.1 18.2004 12 15.5004M12 15.5004C11.8 18.1004 9.9 20.3004 7.3 20.7004M13.5 5.40039C12.5 5.20039 11.5 5.20039 10.5 5.40039M17 16.4004C17.7 15.7004 18.2 14.8004 18.5 13.9004M5.5 13.9004C5.8 14.8004 6.3 15.7004 7 16.4004" stroke="black" stroke-width="2" stroke-linecap="round" stroke-linejoin="round"/>
</svg>
