<svg width="24" height="24" viewBox="0 0 24 24" fill="none" xmlns="http://www.w3.org/2000/svg">
<path d="M14.35 4.6498L16.3 2.6998C16.7516 2.25036 17.3628 1.99805 18 1.99805C18.6372 1.99805 19.2484 2.25036 19.7 2.6998L21.3 4.2998C21.5237 4.52277 21.7013 4.78771 21.8224 5.07944C21.9435 5.37116 22.0059 5.68393 22.0059 5.9998C22.0059 6.31568 21.9435 6.62844 21.8224 6.92017C21.7013 7.21189 21.5237 7.47683 21.3 7.6998L19.35 9.6498M22 1.9998L20.5 3.4998M20 12.9998C20 17.9704 15.9706 21.9998 11 21.9998C6.02944 21.9998 2 17.9704 2 12.9998C2 8.02924 6.02944 3.9998 11 3.9998C15.9706 3.9998 20 8.02924 20 12.9998Z" stroke="black" stroke-width="2" stroke-linecap="round" stroke-linejoin="round"/>
</svg>
