<svg width="24" height="24" viewBox="0 0 24 24" fill="none" xmlns="http://www.w3.org/2000/svg">
<g clip-path="url(#clip0_152_8984)">
<path d="M17.7499 7.00042L14.9999 2.10042M10.8999 4.80042L12.9999 9.00042M7.8999 9.70042L9.89989 14.1004M4.8999 14.7004L6.9999 18.9004M5.6999 21.0004C5.56857 21.2302 5.39327 21.4319 5.184 21.594C4.97473 21.7561 4.73559 21.8753 4.48023 21.945C3.9645 22.0856 3.41402 22.0156 2.9499 21.7504C2.48577 21.4852 2.146 21.0465 2.00535 20.5307C1.8647 20.015 1.93468 19.4645 2.1999 19.0004L10.7999 5.00042C11.5955 3.62129 12.9065 2.61472 14.4443 2.20214C15.9821 1.78956 17.6208 2.00477 18.9999 2.80042C20.379 3.59607 21.3856 4.90698 21.7982 6.44478C22.2108 7.98258 21.9955 9.62129 21.1999 11.0004C21.0695 11.2297 20.8951 11.4309 20.6866 11.5926C20.4782 11.7542 20.2398 11.8729 19.9853 11.942C19.7307 12.0111 19.465 12.0292 19.2035 11.9952C18.9419 11.9612 18.6897 11.8758 18.4612 11.7439C18.2328 11.6121 18.0327 11.4363 17.8725 11.2268C17.7123 11.0173 17.5951 10.7781 17.5277 10.5231C17.4603 10.2681 17.444 10.0023 17.4797 9.74097C17.5154 9.47964 17.6025 9.22796 17.7359 9.00042C17.8693 8.77288 17.9564 8.5212 17.9921 8.25987C18.0278 7.99854 18.0115 7.73272 17.9441 7.47773C17.8767 7.22273 17.7595 6.98358 17.5993 6.77406C17.4391 6.56454 17.239 6.38877 17.0105 6.25689C16.7821 6.12501 16.5299 6.03961 16.2683 6.00561C16.0068 5.97161 15.7411 5.98969 15.4865 6.0588C15.232 6.12791 14.9936 6.24668 14.7851 6.40828C14.5767 6.56989 14.4023 6.77113 14.2719 7.00042L5.6999 21.0004Z" stroke="black" stroke-width="2" stroke-linecap="round" stroke-linejoin="round"/>
</g>
<defs>
<clipPath id="clip0_152_8984">
<rect width="24" height="24" fill="white"/>
</clipPath>
</defs>
</svg>
