<svg width="24" height="24" viewBox="0 0 24 24" fill="none" xmlns="http://www.w3.org/2000/svg">
<path d="M21 7.99955L19 9.99955M19 9.99955L17.5 6.29955C17.3585 5.92089 17.1057 5.59398 16.7747 5.36191C16.4437 5.12983 16.0502 5.0035 15.646 4.99955H8.4C7.9925 4.99019 7.59188 5.10556 7.25177 5.33022C6.91166 5.55487 6.64832 5.87808 6.497 6.25655L5 9.99955M19 9.99955H5M19 9.99955C20.1046 9.99955 21 10.895 21 11.9996V15.9996C21 17.1041 20.1046 17.9996 19 17.9996M5 9.99955L3 7.99955M5 9.99955C3.89543 9.99955 3 10.895 3 11.9996V15.9996C3 17.1041 3.89543 17.9996 5 17.9996M7 13.9996H7.01M17 13.9996H17.01M19 17.9996H5M19 17.9996V19.9996M5 17.9996V19.9996" stroke="black" stroke-width="2" stroke-linecap="round" stroke-linejoin="round"/>
</svg>
