<svg width="24" height="24" viewBox="0 0 24 24" fill="none" xmlns="http://www.w3.org/2000/svg">
<path d="M7 8.99967H7.01M16.75 11.9997H22L18.5 18.9997L15.41 14.6797M2 18.9997H5.76C6.13273 19.0023 6.49877 18.9006 6.81682 18.7063C7.13487 18.5119 7.39228 18.2325 7.56 17.8997L9 14.9997M2 20.9997V16.9997M18 9.49967L14 17.4997L3.61 12.2997C2.92033 11.9523 2.39635 11.3459 2.15272 10.6131C1.90909 9.8803 1.96564 9.08085 2.31 8.38967L3.69 5.59967C3.862 5.25689 4.09984 4.95135 4.38994 4.70051C4.68003 4.44966 5.0167 4.25841 5.38072 4.13769C5.74474 4.01697 6.12897 3.96914 6.51147 3.99694C6.89398 4.02473 7.26726 4.1276 7.61 4.29967L18 9.49967Z" stroke="black" stroke-width="2" stroke-linecap="round" stroke-linejoin="round"/>
</svg>
