<svg width="24" height="24" viewBox="0 0 24 24" fill="none" xmlns="http://www.w3.org/2000/svg">
<path d="M10.0999 2.18216C11.3549 1.93928 12.6449 1.93928 13.8999 2.18216M13.8999 21.8182C12.6449 22.061 11.3549 22.061 10.0999 21.8182M17.6089 3.72116C18.6704 4.44038 19.5836 5.35703 20.2989 6.42116M2.18191 13.9002C1.93904 12.6451 1.93904 11.3552 2.18191 10.1002M20.2789 17.6092C19.5597 18.6706 18.643 19.5839 17.5789 20.2992M21.8179 10.1002C22.0608 11.3552 22.0608 12.6451 21.8179 13.9002M3.72091 6.39116C4.44014 5.32969 5.35678 4.41644 6.42092 3.70116M6.39091 20.2792C5.32945 19.5599 4.41619 18.6433 3.70091 17.5792" stroke="black" stroke-width="2" stroke-linecap="round" stroke-linejoin="round"/>
</svg>
