<svg width="24" height="24" viewBox="0 0 24 24" fill="none" xmlns="http://www.w3.org/2000/svg">
<g clip-path="url(#clip0_152_8876)">
<path d="M10.1 2.18005C11.3549 1.93543 12.6452 1.93543 13.9 2.18005M17.6 3.71005C18.6623 4.4283 19.5757 5.34512 20.2901 6.41005M21.82 10.1C22.0647 11.3549 22.0647 12.6452 21.82 13.9M20.2901 17.6C19.5718 18.6623 18.655 19.5757 17.59 20.2901M13.9 21.82C12.6452 22.0644 11.3549 22.0644 10.1 21.82M6.40005 20.2901C5.33778 19.5718 4.42436 18.655 3.71005 17.59M2.18005 13.9C1.93543 12.6452 1.93543 11.3549 2.18005 10.1M3.71005 6.40005C4.4283 5.33778 5.34512 4.42436 6.41005 3.71005M13 12C13 12.5523 12.5523 13 12 13C11.4478 13 11 12.5523 11 12C11 11.4478 11.4478 11 12 11C12.5523 11 13 11.4478 13 12Z" stroke="black" stroke-width="2" stroke-linecap="round" stroke-linejoin="round"/>
</g>
<defs>
<clipPath id="clip0_152_8876">
<rect width="24" height="24" fill="white"/>
</clipPath>
</defs>
</svg>
