<svg width="24" height="24" viewBox="0 0 24 24" fill="none" xmlns="http://www.w3.org/2000/svg">
<path d="M19.6499 15.6601C18.1362 17.0958 16.1215 17.8833 14.0354 17.8548C11.9493 17.8262 9.95686 16.9839 8.48294 15.5074C7.00902 14.0308 6.17021 12.0369 6.14536 9.95079C6.12051 7.86466 6.91159 5.85134 8.34992 4.34013M13.9999 10.0001L8.49992 15.5001M13.9999 10.0001V17.8501M13.9999 10.0001H6.14992M21.6599 17.6701C21.7691 17.7741 21.8552 17.8998 21.9129 18.0391C21.9705 18.1784 21.9983 18.3283 21.9946 18.479C21.9908 18.6297 21.9555 18.778 21.891 18.9142C21.8265 19.0505 21.7341 19.1717 21.6199 19.2701C19.3174 21.1625 16.393 22.1303 13.4161 21.9851C10.4392 21.8399 7.62293 20.5921 5.51546 18.4846C3.40799 16.3771 2.1602 13.5608 2.01499 10.5839C1.86979 7.60707 2.83757 4.68269 4.72993 2.38013C4.83009 2.26699 4.95249 2.1757 5.08949 2.11195C5.22649 2.04821 5.37516 2.01337 5.52622 2.00962C5.67728 2.00586 5.82749 2.03327 5.96749 2.09014C6.10749 2.147 6.23427 2.2321 6.33992 2.34013L21.6599 17.6701Z" stroke="black" stroke-width="2" stroke-linecap="round" stroke-linejoin="round"/>
</svg>
