<svg width="24" height="24" viewBox="0 0 24 24" fill="none" xmlns="http://www.w3.org/2000/svg">
<path d="M4.2001 15.1001C3.41932 14.3632 2.81849 13.4566 2.44409 12.4504C2.06969 11.4442 1.93175 10.3654 2.04094 9.29737C2.15012 8.22934 2.50351 7.20074 3.07377 6.29111C3.64403 5.38149 4.41587 4.61523 5.32961 4.05158C6.24334 3.48794 7.27448 3.14203 8.34327 3.04059C9.41207 2.93916 10.4899 3.08492 11.4933 3.46661C12.4968 3.84831 13.399 4.45569 14.1302 5.2418C14.8614 6.02791 15.4019 6.97167 15.7101 8.00009H17.5001C18.454 8.01295 19.3791 8.32861 20.1419 8.9015C20.9046 9.47439 21.4656 10.2749 21.7438 11.1874C22.022 12.0999 22.0031 13.0772 21.6896 13.9782C21.3762 14.8792 20.7846 15.6573 20.0001 16.2001M15.7001 18.4001L14.8001 18.1001M9.2001 15.9001L8.3001 15.6001M10.6001 20.7001L10.9001 19.8001M13.1001 14.2001L13.4001 13.3001M13.6001 20.7001L13.2001 19.7001M10.8001 14.3001L10.4001 13.3001M8.3001 18.6001L9.3001 18.2001M14.7001 15.8001L15.7001 15.4001M15.0001 17.0001C15.0001 18.6569 13.657 20.0001 12.0001 20.0001C10.3432 20.0001 9.0001 18.6569 9.0001 17.0001C9.0001 15.3432 10.3432 14.0001 12.0001 14.0001C13.657 14.0001 15.0001 15.3432 15.0001 17.0001Z" stroke="black" stroke-width="2" stroke-linecap="round" stroke-linejoin="round"/>
</svg>
