<svg width="24" height="24" viewBox="0 0 24 24" fill="none" xmlns="http://www.w3.org/2000/svg">
<path d="M6.00009 16.3258C4.94632 15.8254 4.03431 15.0696 3.34695 14.1271C2.65959 13.1846 2.21867 12.0852 2.06427 10.9289C1.90987 9.77266 2.04689 8.59614 2.46287 7.50629C2.87885 6.41644 3.5606 5.44783 4.44616 4.6885C5.33171 3.92916 6.393 3.40317 7.53356 3.15835C8.67411 2.91352 9.85777 2.95761 10.9769 3.28662C12.0961 3.61562 13.1153 4.21911 13.9419 5.04223C14.7686 5.86534 15.3764 6.88199 15.7101 7.99977H17.5001C18.6516 7.99776 19.76 8.43724 20.5973 9.22776C21.4345 10.0183 21.9369 11.0997 22.001 12.2494C22.065 13.3991 21.6859 14.5296 20.9417 15.4083C20.1974 16.2869 19.1447 16.8468 18.0001 16.9728M13.0001 11.9998L10.0001 16.9998H14.0001L11.0001 21.9998" stroke="black" stroke-width="2" stroke-linecap="round" stroke-linejoin="round"/>
</svg>
