<svg width="24" height="24" viewBox="0 0 24 24" fill="none" xmlns="http://www.w3.org/2000/svg">
<path d="M21.9999 9.99981C21.9999 9.20417 21.6838 8.4411 21.1212 7.87849C20.5586 7.31589 19.7956 6.99982 18.9999 6.99982H16.7929C16.4537 5.80614 15.7208 4.76221 14.7135 4.03754C13.7061 3.31287 12.4833 2.95004 11.2437 3.00795C10.0041 3.06587 8.82053 3.54113 7.88511 4.35656C6.94968 5.172 6.31739 6.27971 6.09092 7.49981M17.4999 20.9998H8.99992C7.70178 20.9995 6.42931 20.6382 5.32469 19.9563C4.22008 19.2744 3.32684 18.2988 2.74479 17.1384C2.16274 15.9781 1.91481 14.6788 2.02871 13.3856C2.14261 12.0925 2.61384 10.8565 3.38976 9.8158C4.16568 8.77507 5.21571 7.97061 6.42252 7.4923C7.62932 7.01399 8.94536 6.88069 10.2236 7.10728C11.5018 7.33387 12.6918 7.91143 13.6606 8.77542C14.6295 9.63941 15.339 10.7558 15.7099 11.9998H17.4999C18.0909 11.9998 18.676 12.1162 19.222 12.3424C19.768 12.5685 20.264 12.9 20.6819 13.3178C21.0998 13.7357 21.4312 14.2318 21.6574 14.7777C21.8835 15.3237 21.9999 15.9089 21.9999 16.4998C21.9999 17.0908 21.8835 17.6759 21.6574 18.2219C21.4312 18.7679 21.0998 19.2639 20.6819 19.6818C20.264 20.0997 19.768 20.4311 19.222 20.6573C18.676 20.8834 18.0909 20.9998 17.4999 20.9998Z" stroke="black" stroke-width="2" stroke-linecap="round" stroke-linejoin="round"/>
</svg>
