<svg width="24" height="24" viewBox="0 0 24 24" fill="none" xmlns="http://www.w3.org/2000/svg">
<path d="M16.17 7.82981L2 21.9998M16.17 7.82981C16.4398 7.55964 16.652 7.23762 16.7939 6.88319C16.9358 6.52875 17.0045 6.14925 16.9957 5.76756C16.987 5.38587 16.901 5.00991 16.743 4.66235C16.585 4.3148 16.3582 4.00285 16.0763 3.74532C15.7945 3.4878 15.4634 3.29003 15.103 3.16396C14.7426 3.03788 14.3605 2.98611 13.9795 3.01176C13.5986 3.03741 13.2268 3.13995 12.8866 3.3132C12.5464 3.48646 12.2448 3.72682 12 4.01981C11.7552 3.72682 11.4536 3.48646 11.1134 3.3132C10.7732 3.13995 10.4014 3.03741 10.0205 3.01176C9.63955 2.98611 9.25737 3.03788 8.897 3.16396C8.53663 3.29003 8.20553 3.4878 7.92367 3.74532C7.64181 4.00285 7.41504 4.3148 7.25702 4.66235C7.09901 5.00991 7.01304 5.38587 7.00428 5.76756C6.99553 6.14925 7.06418 6.52875 7.20609 6.88319C7.34801 7.23762 7.56024 7.55964 7.83 7.82981M16.17 7.82981C16.4402 7.56006 16.7622 7.34782 17.1166 7.20591C17.4711 7.06399 17.8506 6.99534 18.2323 7.0041C18.6139 7.01285 18.9899 7.09882 19.3375 7.25684C19.685 7.41485 19.997 7.64162 20.2545 7.92348C20.512 8.20534 20.7098 8.53644 20.8359 8.89681C20.9619 9.25718 21.0137 9.63936 20.9881 10.0203C20.9624 10.4012 20.8599 10.773 20.6866 11.1132C20.5134 11.4534 20.273 11.755 19.98 11.9998C20.273 12.2446 20.5134 12.5462 20.6866 12.8864C20.8599 13.2266 20.9624 13.5984 20.9881 13.9793C21.0137 14.3603 20.9619 14.7424 20.8359 15.1028C20.7098 15.4632 20.512 15.7943 20.2545 16.0761C19.997 16.358 19.685 16.5848 19.3375 16.7428C18.9899 16.9008 18.6139 16.9868 18.2323 16.9955C17.8506 17.0043 17.4711 16.9356 17.1166 16.7937C16.7622 16.6518 16.4402 16.4396 16.17 16.1698M4.02 11.9998C3.72701 11.755 3.48664 11.4534 3.31339 11.1132C3.14014 10.773 3.0376 10.4012 3.01195 10.0203C2.9863 9.63936 3.03807 9.25718 3.16415 8.89681C3.29022 8.53644 3.48799 8.20534 3.74551 7.92348C4.00304 7.64162 4.31498 7.41485 4.66254 7.25684C5.0101 7.09882 5.38606 7.01285 5.76775 7.0041C6.14943 6.99534 6.52894 7.06399 6.88338 7.20591C7.23781 7.34782 7.55983 7.56006 7.83 7.82981M7.83 7.82981L16.17 16.1698M16.17 16.1698C16.4398 16.44 16.652 16.762 16.7939 17.1164C16.9358 17.4709 17.0045 17.8504 16.9957 18.2321C16.987 18.6138 16.901 18.9897 16.743 19.3373C16.585 19.6848 16.3582 19.9968 16.0763 20.2543C15.7945 20.5118 15.4634 20.7096 15.103 20.8357C14.7426 20.9617 14.3605 21.0135 13.9795 20.9879C13.5986 20.9622 13.2268 20.8597 12.8866 20.6864C12.5464 20.5132 12.2448 20.2728 12 19.9798C11.7552 20.2728 11.4536 20.5132 11.1134 20.6864C10.7732 20.8597 10.4014 20.9622 10.0205 20.9879C9.63955 21.0135 9.25737 20.9617 8.897 20.8357C8.53663 20.7096 8.20553 20.5118 7.92367 20.2543C7.64181 19.9968 7.41504 19.6848 7.25702 19.3373C7.09901 18.9897 7.01304 18.6138 7.00428 18.2321C6.99553 17.8504 7.06418 17.4709 7.20609 17.1164C7.34801 16.762 7.56024 16.44 7.83 16.1698C7.27702 16.6777 6.54494 16.9451 5.79479 16.9132C5.04465 16.8814 4.33789 16.5528 3.83 15.9998C3.32211 15.4468 3.05469 14.7148 3.08657 13.9646C3.11845 13.2145 3.44702 12.5077 4 11.9998" stroke="black" stroke-width="2" stroke-linecap="round" stroke-linejoin="round"/>
</svg>
