<svg width="24" height="24" viewBox="0 0 24 24" fill="none" xmlns="http://www.w3.org/2000/svg">
<path d="M12.0001 17.6598C11.4755 18.4049 10.774 19.0081 9.95865 19.415C9.14326 19.8219 8.23954 20.0199 7.32871 19.9911C6.41788 19.9622 5.52848 19.7075 4.74046 19.2499C3.95243 18.7922 3.29048 18.1459 2.81408 17.369C2.33769 16.5922 2.06179 15.7092 2.01118 14.7993C1.96056 13.8894 2.13683 12.9812 2.52412 12.1563C2.91142 11.3314 3.49761 10.6157 4.23002 10.0734C4.96242 9.53119 5.81808 9.17943 6.7201 9.04977C6.48102 8.23007 6.43607 7.36597 6.58881 6.5259C6.74155 5.68582 7.08779 4.89284 7.6001 4.20977C8.1124 3.52669 8.77672 2.97227 9.54042 2.59042C10.3041 2.20856 11.1462 2.00977 12.0001 2.00977C12.8539 2.00977 13.6961 2.20856 14.4598 2.59042C15.2235 2.97227 15.8878 3.52669 16.4001 4.20977C16.9124 4.89284 17.2586 5.68582 17.4114 6.5259C17.5641 7.36597 17.5192 8.23007 17.2801 9.04977V9.05977C18.1832 9.18827 19.0402 9.53937 19.7738 10.0815C20.5074 10.6236 21.0947 11.3396 21.4828 12.1651C21.8709 12.9907 22.0475 13.8998 21.9968 14.8106C21.9461 15.7213 21.6697 16.6052 21.1924 17.3826C20.7151 18.16 20.052 18.8064 19.2628 19.2638C18.4735 19.7211 17.5829 19.9749 16.6711 20.0024C15.7593 20.0299 14.855 19.8302 14.0396 19.4212C13.2242 19.0123 12.5233 18.407 12.0001 17.6598ZM12.0001 17.6598V21.9998" stroke="black" stroke-width="2" stroke-linecap="round" stroke-linejoin="round"/>
</svg>
