<svg width="24" height="24" viewBox="0 0 24 24" fill="none" xmlns="http://www.w3.org/2000/svg">
<path d="M10 22.0001V14.0001M10 14.0001L2.25 9.15015M10 14.0001L21.77 7.13015M21.12 6.40015L15.07 2.34015C14.7515 2.12382 14.3773 2.00403 13.9924 1.99516C13.6074 1.98629 13.2281 2.08872 12.9 2.29015L2.95 8.41015C2.65992 8.58909 2.42038 8.83919 2.25411 9.13671C2.08785 9.43424 2.00038 9.76932 2 10.1101V15.9302C1.99951 16.2578 2.0795 16.5805 2.23294 16.8699C2.38639 17.1594 2.60858 17.4067 2.88 17.5901L8.93 21.6601C9.24852 21.8765 9.6227 21.9963 10.0076 22.0051C10.3926 22.014 10.7719 21.9116 11.1 21.7101L21.05 15.5901C21.3401 15.4112 21.5796 15.1611 21.7459 14.8636C21.9122 14.5661 21.9996 14.231 22 13.8902V8.06015C22.0005 7.73254 21.9205 7.40983 21.7671 7.12038C21.6136 6.83093 21.3914 6.58361 21.12 6.40015Z" stroke="black" stroke-width="2" stroke-linecap="round" stroke-linejoin="round"/>
</svg>
