<svg width="24" height="24" viewBox="0 0 24 24" fill="none" xmlns="http://www.w3.org/2000/svg">
<g clip-path="url(#clip0_152_8656)">
<path d="M6.47999 3.66024C8.40309 2.38563 10.7078 1.8152 13.0034 2.04562C15.299 2.27605 17.4443 3.29316 19.0757 4.92455C20.7071 6.55595 21.7242 8.70126 21.9546 10.9969C22.185 13.2925 21.6146 15.5971 20.34 17.5202M6.40999 6.41024L17.59 17.5902M3.65999 6.48024C2.38539 8.40333 1.81495 10.708 2.04538 13.0036C2.2758 15.2992 3.29291 17.4445 4.92431 19.0759C6.55571 20.7073 8.70102 21.7244 10.9966 21.9549C13.2922 22.1853 15.5969 21.6148 17.52 20.3402M21 19.0002C21 20.1048 20.1046 21.0002 19 21.0002C17.8954 21.0002 17 20.1048 17 19.0002C17 17.8957 17.8954 17.0002 19 17.0002C20.1046 17.0002 21 17.8957 21 19.0002ZM6.99999 5.00024C6.99999 6.10481 6.10456 7.00024 4.99999 7.00024C3.89542 7.00024 2.99999 6.10481 2.99999 5.00024C2.99999 3.89567 3.89542 3.00024 4.99999 3.00024C6.10456 3.00024 6.99999 3.89567 6.99999 5.00024Z" stroke="black" stroke-width="2" stroke-linecap="round" stroke-linejoin="round"/>
</g>
<defs>
<clipPath id="clip0_152_8656">
<rect width="24" height="24" fill="white"/>
</clipPath>
</defs>
</svg>
