<svg width="24" height="24" viewBox="0 0 24 24" fill="none" xmlns="http://www.w3.org/2000/svg">
<path d="M17.92 13.9998L21.42 10.4998C21.791 10.0883 21.9964 9.55389 21.9964 8.99981C21.9964 8.44573 21.791 7.91131 21.42 7.49981L16.42 2.57981C16.0085 2.20877 15.4741 2.00342 14.92 2.00342C14.3659 2.00342 13.8315 2.20877 13.42 2.57981L10 5.99981M6 17.9998H6.01M10 13.9998H10.01M15 5.99981H15.01M18 8.99981H18.01M4 9.99981H12C13.1046 9.99981 14 10.8952 14 11.9998V19.9998C14 21.1044 13.1046 21.9998 12 21.9998H4C2.89543 21.9998 2 21.1044 2 19.9998V11.9998C2 10.8952 2.89543 9.99981 4 9.99981Z" stroke="black" stroke-width="2" stroke-linecap="round" stroke-linejoin="round"/>
</svg>
