<svg width="24" height="24" viewBox="0 0 24 24" fill="none" xmlns="http://www.w3.org/2000/svg">
<path d="M9.99998 5.17187C9.99998 3.78187 8.42298 2.67887 6.49998 2.99987C3.67698 3.46987 2.38698 9.00587 2.49998 9.99987C2.57998 10.7029 4.22498 11.7219 6.15598 10.9999C7.41698 10.5279 8.11598 9.54987 8.49998 8.49987M14.267 5.17187C14.267 3.78187 15.844 2.67887 17.767 2.99987C20.59 3.46987 21.88 9.00587 21.767 9.99987C21.687 10.7029 20.042 11.7219 18.111 10.9999C16.85 10.5279 16.256 9.54987 15.872 8.49987M7.99998 13.9999V14.4999M16 13.9999V14.4999M4.41998 11.2469C4.14011 12.3276 3.99898 13.4395 3.99998 14.5559C3.99998 18.7279 7.58198 20.9999 12 20.9999C16.418 20.9999 20 18.7279 20 14.5559C20 13.4949 19.838 12.3559 19.507 11.2469M10.264 5.16487C10.8358 5.05253 11.4173 4.99726 12 4.99987C12.78 4.99987 13.5 5.10787 14.161 5.30587M11.25 16.2499H12.75L12 16.9999L11.25 16.2499Z" stroke="black" stroke-width="2" stroke-linecap="round" stroke-linejoin="round"/>
</svg>
