<svg width="24" height="24" viewBox="0 0 24 24" fill="none" xmlns="http://www.w3.org/2000/svg">
<path d="M20.5001 10.0002C20.1336 9.99298 19.7732 9.90522 19.4443 9.74316C19.1155 9.5811 18.8263 9.34871 18.5973 9.06245C18.3683 8.77619 18.2051 8.44307 18.1192 8.08669C18.0332 7.73031 18.0267 7.35939 18.1001 7.00022H18.0001C17.4821 7.00568 16.9718 6.87462 16.5205 6.62024C16.0692 6.36586 15.6929 5.99713 15.4293 5.55114C15.1658 5.10514 15.0243 4.59761 15.0192 4.0796C15.0141 3.56158 15.1455 3.05135 15.4001 2.60022C13.3092 1.83577 11.023 1.79089 8.90377 2.47269C6.7845 3.15449 4.95333 4.52397 3.7004 6.36417C2.44746 8.20437 1.84441 10.41 1.98679 12.6317C2.12917 14.8534 3.00883 16.9641 4.48641 18.6293C5.964 20.2945 7.95499 21.419 10.144 21.8247C12.3329 22.2304 14.5947 21.8941 16.5709 20.869C18.5471 19.8439 20.1247 18.1887 21.0538 16.1656C21.9829 14.1425 22.2104 11.8672 21.7001 9.70022C21.4001 9.90022 20.9001 10.0002 20.5001 10.0002Z" stroke="black" stroke-width="2" stroke-linecap="round" stroke-linejoin="round"/>
<path d="M12.0001 15.0002C13.657 15.0002 15.0001 13.6571 15.0001 12.0002C15.0001 10.3434 13.657 9.00022 12.0001 9.00022C10.3433 9.00022 9.00012 10.3434 9.00012 12.0002C9.00012 13.6571 10.3433 15.0002 12.0001 15.0002Z" stroke="black" stroke-width="2" stroke-linecap="round" stroke-linejoin="round"/>
</svg>
