<svg width="24" height="24" viewBox="0 0 24 24" fill="none" xmlns="http://www.w3.org/2000/svg">
<path d="M10.0002 11H10.0102M14.0002 6H14.0102M18.0002 6H18.0102M6.50019 13.1H6.51019M17.4002 9.9C16.6002 10.7 15.4002 10.7 14.6002 9.9M10.1002 7.1C9.00019 7.2 7.70019 7.7 6.00019 8.6C2.50019 10.6 1.30019 12.5 2.30019 14.2C6.80019 22 11.8002 22.6 13.5002 21.6C14.4002 21.1 15.4002 19.5 15.4002 16.9M9.10019 16.5C9.40019 15.4 10.5002 14.8 11.5002 15.1M22.0002 5C22.0002 14 18.0002 17 16.0002 17C14.0002 17 10.0002 14 10.0002 5C10.0002 3 12.0002 2 16.0002 2C20.0002 2 22.0002 3 22.0002 5Z" stroke="black" stroke-width="2" stroke-linecap="round" stroke-linejoin="round"/>
</svg>
