<svg width="24" height="24" viewBox="0 0 24 24" fill="none" xmlns="http://www.w3.org/2000/svg">
<path d="M11.2499 15.5998L9.08995 17.7598C9.297 18.0726 9.43102 18.428 9.48206 18.7996C9.53311 19.1712 9.49989 19.5495 9.38484 19.9065C9.2698 20.2636 9.0759 20.5901 8.8175 20.862C8.5591 21.1339 8.24282 21.3442 7.89211 21.4772C7.54141 21.6103 7.16525 21.6627 6.79153 21.6307C6.4178 21.5986 6.05608 21.4828 5.73318 21.2919C5.41027 21.1011 5.13446 20.84 4.92617 20.528C4.71788 20.2161 4.58247 19.8612 4.52995 19.4898C4.06915 19.4267 3.63526 19.2357 3.27743 18.9385C2.91961 18.6414 2.65216 18.25 2.5054 17.8086C2.35863 17.3673 2.33841 16.8937 2.44702 16.4414C2.55564 15.9892 2.78875 15.5764 3.11995 15.2498C3.52674 14.8436 4.06112 14.59 4.63306 14.5317C5.20501 14.4734 5.77957 14.614 6.25995 14.9298L8.41995 12.7698M15.4499 15.3998C13.3199 16.0498 11.1499 15.7198 9.74995 14.2998C7.45995 12.0298 7.98995 7.79983 10.9199 4.87983C13.8499 1.94983 18.0699 1.41983 20.3499 3.69983C21.7599 5.10983 22.0899 7.26983 21.4499 9.40983C20.0499 8.89983 18.1899 9.38983 16.8099 10.7698C15.4299 12.1498 14.9399 13.9998 15.4499 15.3998Z" stroke="black" stroke-width="2" stroke-linecap="round" stroke-linejoin="round"/>
</svg>
