<svg width="24" height="24" viewBox="0 0 24 24" fill="none" xmlns="http://www.w3.org/2000/svg">
<path d="M3.99992 22H17.9999C18.5304 22 19.0391 21.7893 19.4141 21.4142C19.7892 21.0391 19.9999 20.5304 19.9999 20V7L14.9999 2H5.99992C5.46949 2 4.96078 2.21071 4.5857 2.58579C4.21063 2.96086 3.99992 3.46957 3.99992 4V6M13.9999 2V6C13.9999 6.53043 14.2106 7.03914 14.5857 7.41421C14.9608 7.78929 15.4695 8 15.9999 8H19.9999M10.2899 10.7C9.94833 10.3589 9.5129 10.1273 9.03915 10.0347C8.5654 9.94209 8.0748 9.99267 7.62992 10.18C7.33992 10.3 7.06992 10.48 6.84992 10.71L6.49992 11.05L6.14992 10.71C5.81029 10.3693 5.37715 10.137 4.90539 10.0426C4.43363 9.94828 3.94448 9.99609 3.49992 10.18C3.19992 10.3 2.93992 10.48 2.70992 10.71C1.75992 11.65 1.70992 13.24 2.90992 14.45L6.49992 18L10.0999 14.45C11.2999 13.24 11.2399 11.65 10.2899 10.71V10.7Z" stroke="black" stroke-width="2" stroke-linecap="round" stroke-linejoin="round"/>
</svg>
