<svg width="24" height="24" viewBox="0 0 24 24" fill="none" xmlns="http://www.w3.org/2000/svg">
<path d="M16 22H18C18.5304 22 19.0391 21.7893 19.4142 21.4142C19.7892 21.0391 20 20.5304 20 20V7L15 2H5.99995C5.46952 2 4.96081 2.21071 4.58574 2.58579C4.21067 2.96086 3.99995 3.46957 3.99995 4V7M14 2V6C14 6.53043 14.2107 7.03914 14.5857 7.41421C14.9608 7.78929 15.4695 8 16 8H20M3.99995 11.5C3.38895 12.0456 2.89574 12.7102 2.5505 13.4531C2.20526 14.1959 2.01527 15.0014 1.99214 15.8203C1.96902 16.6391 2.11326 17.4541 2.41603 18.2152C2.7188 18.9764 3.17373 19.6678 3.75296 20.247C4.3322 20.8262 5.02356 21.2812 5.78472 21.5839C6.54588 21.8867 7.36083 22.0309 8.17967 22.0078C8.99851 21.9847 9.80401 21.7947 10.5469 21.4495C11.2897 21.1042 11.9543 20.611 12.5 20M14 16C14 12.7 11.3 10 7.99995 10V16H14Z" stroke="black" stroke-width="2" stroke-linecap="round" stroke-linejoin="round"/>
</svg>
