<svg width="24" height="24" viewBox="0 0 24 24" fill="none" xmlns="http://www.w3.org/2000/svg">
<path d="M14.5001 22H18.0001C18.5305 22 19.0392 21.7893 19.4143 21.4142C19.7894 21.0391 20.0001 20.5304 20.0001 20V7L15.0001 2H6.00008C5.46965 2 4.96094 2.21071 4.58587 2.58579C4.21079 2.96086 4.00008 3.46957 4.00008 4V8M14.0001 2V6C14.0001 6.53043 14.2108 7.03914 14.5859 7.41421C14.9609 7.78929 15.4696 8 16.0001 8H20.0001M7.00008 17V22M7.00008 17L11.7001 14.2M7.00008 17L2.30008 14.2M3.00008 13.1C2.6919 13.2779 2.43676 13.5348 2.26097 13.8441C2.08519 14.1535 1.99513 14.5042 2.00008 14.86V18.1C1.9885 18.4562 2.07232 18.809 2.24286 19.122C2.4134 19.4349 2.66446 19.6966 2.97008 19.88L6.00008 21.7C6.30676 21.8827 6.65675 21.9799 7.01372 21.9817C7.37068 21.9835 7.72161 21.8896 8.03008 21.71L11.0001 19.9C11.3083 19.7221 11.5634 19.4652 11.7392 19.1559C11.915 18.8465 12.005 18.4958 12.0001 18.14V14.9C12.0117 14.5438 11.9278 14.191 11.7573 13.878C11.5868 13.5651 11.3357 13.3034 11.0301 13.12L8.00008 11.3C7.69339 11.1173 7.34341 11.0201 6.98644 11.0183C6.62948 11.0165 6.27855 11.1104 5.97008 11.29L3.00008 13.1Z" stroke="black" stroke-width="2" stroke-linecap="round" stroke-linejoin="round"/>
</svg>
