<svg width="24" height="24" viewBox="0 0 24 24" fill="none" xmlns="http://www.w3.org/2000/svg">
<path d="M18 12V12.5M16 17.93C14.6992 16.2268 13.9945 14.1431 13.9945 12C13.9945 9.85689 14.6992 7.77322 16 6.07001M6.99998 10.67C6.99998 8.00001 5.57998 5.97001 2.72998 5.50001C1.72998 7.00001 1.72998 10.5 2.95998 12C1.71998 13.5 1.71998 17 2.72998 18.5C5.57998 18.03 6.99998 16 6.99998 13.33M10.46 7.26001C10.2 5.88001 9.16998 4.24001 7.99998 3.00001H13.8C14.2745 2.99826 14.7341 3.16526 15.0969 3.47118C15.4596 3.7771 15.7017 4.20202 15.78 4.67001L16.01 6.07001M16.01 17.93L15.78 19.33C15.7017 19.798 15.4596 20.2229 15.0969 20.5288C14.7341 20.8348 14.2745 21.0018 13.8 21H9.49998C10.4688 19.9015 10.9992 18.4847 10.99 17.02M6.49998 12C7.43998 8.54001 11.44 6.00001 15 6.00001C18.56 6.00001 21.06 8.54001 22 12C21.06 15.47 18.56 18 15 18C11.44 18 7.43998 15.47 6.49998 12Z" stroke="black" stroke-width="2" stroke-linecap="round" stroke-linejoin="round"/>
</svg>
