<svg width="24" height="24" viewBox="0 0 24 24" fill="none" xmlns="http://www.w3.org/2000/svg">
<path d="M9.50001 2.01V9.32M13.5 2V9.31C14.9733 9.78645 16.2282 10.7732 17.0386 12.0926C17.8491 13.4121 18.1619 14.9775 17.9207 16.507C17.6795 18.0366 16.9002 19.4298 15.7231 20.4358C14.546 21.4419 13.0485 21.9947 11.5 21.9947C9.95157 21.9947 8.45398 21.4419 7.27688 20.4358C6.09978 19.4298 5.3205 18.0366 5.07933 16.507C4.83817 14.9775 5.15096 13.4121 5.9614 12.0926C6.77184 10.7732 8.02669 9.78645 9.50001 9.31M8.00001 2.01H15M5.02001 16.01H17.98" stroke="black" stroke-width="2" stroke-linecap="round" stroke-linejoin="round"/>
</svg>
