<svg width="24" height="24" viewBox="0 0 24 24" fill="none" xmlns="http://www.w3.org/2000/svg">
<path d="M9 20.0001H4C3.46957 20.0001 2.96086 19.7894 2.58579 19.4143C2.21071 19.0392 2 18.5305 2 18.0001V5.0001C2 4.46966 2.21071 3.96096 2.58579 3.58588C2.96086 3.21081 3.46957 3.0001 4 3.0001H7.9C8.23449 2.99682 8.56445 3.07748 8.8597 3.23472C9.15495 3.39195 9.40604 3.62072 9.59 3.9001L10.4 5.1001C10.5821 5.37663 10.83 5.60362 11.1215 5.7607C11.413 5.91778 11.7389 6.00004 12.07 6.0001H20C20.5304 6.0001 21.0391 6.21081 21.4142 6.58588C21.7893 6.96096 22 7.46966 22 8.0001V8.5001M12 10.0001V14.0001M12 14.0001H16M12 14.0001L13.535 12.3951C14.109 11.8434 14.8065 11.4368 15.5694 11.209C16.3323 10.9813 17.1386 10.939 17.9211 11.0857C18.7037 11.2324 19.4399 11.5639 20.0684 12.0526C20.697 12.5412 21.1998 13.1729 21.535 13.8951M22 22.0001V18.0001M22 18.0001H18M22 18.0001L20.465 19.6051C19.891 20.1568 19.1935 20.5634 18.4306 20.7912C17.6677 21.0189 16.8614 21.0612 16.0789 20.9145C15.2963 20.7677 14.5601 20.4363 13.9316 19.9476C13.303 19.459 12.8002 18.8273 12.465 18.1051" stroke="black" stroke-width="2" stroke-linecap="round" stroke-linejoin="round"/>
</svg>
