<svg width="24" height="24" viewBox="0 0 24 24" fill="none" xmlns="http://www.w3.org/2000/svg">
<path d="M2 11.5001V5.0001C2 4.46966 2.21071 3.96096 2.58579 3.58588C2.96086 3.21081 3.46957 3.0001 4 3.0001H7.9C8.23449 2.99682 8.56445 3.07748 8.8597 3.23472C9.15495 3.39195 9.40604 3.62072 9.59 3.9001L10.4 5.1001C10.5821 5.37663 10.83 5.60362 11.1215 5.7607C11.413 5.91778 11.7389 6.00004 12.07 6.0001H20C20.5304 6.0001 21.0391 6.21081 21.4142 6.58588C21.7893 6.96096 22 7.46966 22 8.0001V18.0001C22 18.5305 21.7893 19.0392 21.4142 19.4143C21.0391 19.7894 20.5304 20.0001 20 20.0001H10.5M8.4 10.6001C8.79517 10.2036 9.33167 9.98032 9.89146 9.97938C10.4513 9.97844 10.9885 10.1999 11.385 10.5951C11.7815 10.9903 12.0048 11.5268 12.0057 12.0866C12.0067 12.6464 11.7852 13.1836 11.39 13.5801L6 19.0001L2 20.0001L3 16.1001L8.4 10.6001Z" stroke="black" stroke-width="2" stroke-linecap="round" stroke-linejoin="round"/>
</svg>
