<svg width="24" height="24" viewBox="0 0 24 24" fill="none" xmlns="http://www.w3.org/2000/svg">
<path d="M15.6001 2.7002C13.4612 1.86928 11.1017 1.79917 8.91737 2.50162C6.733 3.20407 4.85664 4.63636 3.60306 6.5582C2.34949 8.48005 1.79496 10.7745 2.03251 13.0567C2.27005 15.339 3.28522 17.4701 4.90771 19.0926C6.5302 20.715 8.6613 21.7302 10.9435 21.9678C13.2257 22.2053 15.5202 21.6508 17.4421 20.3972C19.3639 19.1436 20.7962 17.2673 21.4986 15.0829C22.2011 12.8985 22.131 10.539 21.3001 8.4002M13.4001 10.6002L19.0001 5.0002M14.0001 12.0002C14.0001 13.1048 13.1046 14.0002 12.0001 14.0002C10.8955 14.0002 10.0001 13.1048 10.0001 12.0002C10.0001 10.8956 10.8955 10.0002 12.0001 10.0002C13.1046 10.0002 14.0001 10.8956 14.0001 12.0002Z" stroke="black" stroke-width="2" stroke-linecap="round" stroke-linejoin="round"/>
</svg>
