<svg width="24" height="24" viewBox="0 0 24 24" fill="none" xmlns="http://www.w3.org/2000/svg">
<path d="M14.9999 12L6.62694 20.373C6.22911 20.7708 5.68954 20.9943 5.12694 20.9943C4.56433 20.9943 4.02476 20.7708 3.62694 20.373C3.22911 19.9751 3.00562 19.4356 3.00562 18.873C3.00562 18.3104 3.22911 17.7708 3.62694 17.373L11.9999 8.99996M17.9999 15L21.9999 11M21.4999 11.5L19.5859 9.58596C19.2108 9.21098 19 8.70235 18.9999 8.17196V6.99996L16.7399 4.73996C15.6245 3.62515 14.1149 2.99432 12.5379 2.98396L8.99994 2.95996L9.91994 3.77996C10.5734 4.35935 11.0966 5.07066 11.4552 5.867C11.8137 6.66335 11.9994 7.52663 11.9999 8.39996V9.99996L13.9999 12H15.1719C15.7023 12.0001 16.211 12.2109 16.5859 12.586L18.4999 14.5" stroke="black" stroke-width="2" stroke-linecap="round" stroke-linejoin="round"/>
</svg>
