<svg width="24" height="24" viewBox="0 0 24 24" fill="none" xmlns="http://www.w3.org/2000/svg">
<path d="M3 14.9998L8.12 9.87977C8.68207 9.317 9.44462 9.00047 10.24 8.99977H13C13.5304 8.99977 14.0391 9.21049 14.4142 9.58556C14.7893 9.96063 15 10.4693 15 10.9998C15 11.5302 14.7893 12.0389 14.4142 12.414C14.0391 12.7891 13.5304 12.9998 13 12.9998H10.5M14.5 12.3198L18.67 7.42977C18.9922 7.07266 19.4389 6.85261 19.9184 6.81488C20.3979 6.77715 20.8736 6.92461 21.2476 7.22693C21.6217 7.52925 21.8657 7.96343 21.9293 8.44015C21.993 8.91687 21.8716 9.39987 21.59 9.78977L17.39 15.7298C17.115 16.1193 16.7512 16.4378 16.3286 16.6586C15.906 16.8795 15.4368 16.9964 14.96 16.9998H9.83C9.56609 16.9996 9.30475 17.0516 9.06103 17.1528C8.81732 17.2541 8.59606 17.4026 8.41 17.5898L7 18.9998M2 13.9998L8 19.9998" stroke="black" stroke-width="2" stroke-linecap="round" stroke-linejoin="round"/>
</svg>
