<svg width="24" height="24" viewBox="0 0 24 24" fill="none" xmlns="http://www.w3.org/2000/svg">
<path d="M17.5 5.50019C19 7.00019 20.5 9.00019 21 11.0002C19.677 11.2652 18.354 11.3902 16.882 11.2262M5.5 17.5002C7 19.0002 9 20.5002 11 21.0002C11.5 18.5002 11.5 16.0002 10 12.5002M17.5 17.5002C15 17.5002 13.5 17.5002 11.5 16.5002M20 11.5002C21 13.0002 22 15.0002 22 16.0002M11.5 20.0002C13 21.0002 15 22.0002 16 22.0002C16.5 20.5002 16 19.0002 15.5 17.5002M16.5 20.5002C18.5 21.5002 20 22.0002 22 22.0002L2 2.00019M4.783 4.78219C1.073 8.49219 1 14.5002 5 18.0002C6 17.0002 7 13.5002 6.5 11.5002C8 12.5002 10.5 12.5002 12 12.0002M8.227 2.57019C11.578 1.33519 15.453 2.08919 18 5.00019C17.12 5.88019 14.3 6.76119 12.274 6.61819" stroke="black" stroke-width="2" stroke-linecap="round" stroke-linejoin="round"/>
</svg>
