<svg width="24" height="24" viewBox="0 0 24 24" fill="none" xmlns="http://www.w3.org/2000/svg">
<path d="M6.07996 9.49987L2.57996 11.0999C2.40817 11.1806 2.26291 11.3086 2.16116 11.4689C2.05941 11.6291 2.00538 11.815 2.00538 12.0049C2.00538 12.1947 2.05941 12.3806 2.16116 12.5409C2.26291 12.7011 2.40817 12.8291 2.57996 12.9099L11.18 16.8199C11.4392 16.9372 11.7204 16.998 12.005 16.998C12.2895 16.998 12.5708 16.9372 12.83 16.8199L21.41 12.9199C21.5874 12.8416 21.7383 12.7135 21.8442 12.551C21.9501 12.3886 22.0065 12.1988 22.0065 12.0049C22.0065 11.8109 21.9501 11.6212 21.8442 11.4587C21.7383 11.2963 21.5874 11.1681 21.41 11.0899L17.91 9.49987M6.07996 14.4999L2.57996 16.0999C2.40817 16.1806 2.26291 16.3086 2.16116 16.4689C2.05941 16.6291 2.00538 16.815 2.00538 17.0049C2.00538 17.1947 2.05941 17.3806 2.16116 17.5409C2.26291 17.7011 2.40817 17.8291 2.57996 17.9099L11.18 21.8199C11.4392 21.9372 11.7204 21.998 12.005 21.998C12.2895 21.998 12.5708 21.9372 12.83 21.8199L21.41 17.9199C21.5874 17.8416 21.7383 17.7135 21.8442 17.551C21.9501 17.3886 22.0065 17.1988 22.0065 17.0049C22.0065 16.8109 21.9501 16.6212 21.8442 16.4587C21.7383 16.2963 21.5874 16.1681 21.41 16.0899L17.91 14.4999M12.83 2.17987C12.5694 2.06102 12.2864 1.99951 12 1.99951C11.7136 1.99951 11.4305 2.06102 11.17 2.17987L2.59996 6.07987C2.42251 6.15811 2.27164 6.28627 2.16573 6.44873C2.05981 6.61118 2.00342 6.80093 2.00342 6.99487C2.00342 7.1888 2.05981 7.37855 2.16573 7.54101C2.27164 7.70347 2.42251 7.83162 2.59996 7.90987L11.18 11.8199C11.4405 11.9387 11.7236 12.0002 12.01 12.0002C12.2964 12.0002 12.5794 11.9387 12.84 11.8199L21.42 7.91987C21.5974 7.84163 21.7483 7.71347 21.8542 7.55101C21.9601 7.38855 22.0165 7.1988 22.0165 7.00487C22.0165 6.81093 21.9601 6.62118 21.8542 6.45872C21.7483 6.29627 21.5974 6.16811 21.42 6.08987L12.83 2.17987Z" stroke="black" stroke-width="2" stroke-linecap="round" stroke-linejoin="round"/>
</svg>
