<svg width="24" height="24" viewBox="0 0 24 24" fill="none" xmlns="http://www.w3.org/2000/svg">
<g clip-path="url(#clip0_152_8020)">
<path d="M16.0201 12.0001L21.5001 15.1301C21.654 15.2174 21.782 15.3438 21.8711 15.4967C21.9601 15.6495 22.0071 15.8232 22.0071 16.0001C22.0071 16.177 21.9601 16.3508 21.8711 16.5036C21.782 16.6564 21.654 16.7829 21.5001 16.8701L13.0001 21.7401C12.6961 21.9157 12.3512 22.0081 12.0001 22.0081C11.649 22.0081 11.3042 21.9157 11.0001 21.7401L2.50011 16.8701C2.34621 16.7829 2.21821 16.6564 2.12915 16.5036C2.04009 16.3508 1.99316 16.177 1.99316 16.0001C1.99316 15.8232 2.04009 15.6495 2.12915 15.4967C2.21821 15.3438 2.34621 15.2174 2.50011 15.1301L7.98011 12.0001M13.0001 13.7401C12.6961 13.9157 12.3512 14.0081 12.0001 14.0081C11.649 14.0081 11.3042 13.9157 11.0001 13.7401L2.50011 8.87014C2.34621 8.78292 2.21821 8.65644 2.12915 8.5036C2.04009 8.35076 1.99316 8.17703 1.99316 8.00014C1.99316 7.82324 2.04009 7.64951 2.12915 7.49667C2.21821 7.34383 2.34621 7.21735 2.50011 7.13014L11.0001 2.26014C11.3042 2.0846 11.649 1.99219 12.0001 1.99219C12.3512 1.99219 12.6961 2.0846 13.0001 2.26014L21.5001 7.13014C21.654 7.21735 21.782 7.34383 21.8711 7.49667C21.9601 7.64951 22.0071 7.82324 22.0071 8.00014C22.0071 8.17703 21.9601 8.35076 21.8711 8.5036C21.782 8.65644 21.654 8.78292 21.5001 8.87014L13.0001 13.7401Z" stroke="black" stroke-width="2" stroke-linecap="round" stroke-linejoin="round"/>
</g>
<defs>
<clipPath id="clip0_152_8020">
<rect width="24" height="24" fill="white"/>
</clipPath>
</defs>
</svg>
