<svg width="24" height="24" viewBox="0 0 24 24" fill="none" xmlns="http://www.w3.org/2000/svg">
<path d="M22 17.6499L12.83 21.8099C12.5694 21.9287 12.2864 21.9902 12 21.9902C11.7136 21.9902 11.4306 21.9287 11.17 21.8099L2 17.6499M22 12.6499L12.83 16.8099C12.5694 16.9287 12.2864 16.9902 12 16.9902C11.7136 16.9902 11.4306 16.9287 11.17 16.8099L2 12.6499M12.83 2.17987C12.5694 2.06102 12.2864 1.99951 12 1.99951C11.7136 1.99951 11.4306 2.06102 11.17 2.17987L2.6 6.07987C2.42255 6.15811 2.27168 6.28627 2.16576 6.44873C2.05985 6.61118 2.00345 6.80093 2.00345 6.99487C2.00345 7.1888 2.05985 7.37855 2.16576 7.54101C2.27168 7.70347 2.42255 7.83162 2.6 7.90987L11.18 11.8199C11.4406 11.9387 11.7236 12.0002 12.01 12.0002C12.2964 12.0002 12.5794 11.9387 12.84 11.8199L21.42 7.91987C21.5975 7.84163 21.7483 7.71347 21.8542 7.55101C21.9602 7.38855 22.0165 7.1988 22.0165 7.00487C22.0165 6.81093 21.9602 6.62118 21.8542 6.45872C21.7483 6.29627 21.5975 6.16811 21.42 6.08987L12.83 2.17987Z" stroke="black" stroke-width="2" stroke-linecap="round" stroke-linejoin="round"/>
</svg>
