<svg width="24" height="24" viewBox="0 0 24 24" fill="none" xmlns="http://www.w3.org/2000/svg">
<path d="M5.43 5.43002C4.50138 6.77332 4.0027 8.367 4 10C4 16 12 22 12 22C13.8583 20.5367 15.5367 18.8583 17 17M19.18 13.52C19.6979 12.4174 19.9773 11.218 20 10C20 7.87829 19.1571 5.84346 17.6569 4.34317C16.1566 2.84288 14.1217 2.00002 12 2.00002C10.779 1.99695 9.57396 2.27767 8.48 2.82002M9.13 9.13002C9.04077 9.41129 8.99689 9.70496 9 10C9 10.7957 9.31607 11.5587 9.87868 12.1213C10.4413 12.684 11.2044 13 12 13C12.2951 13.0031 12.5887 12.9593 12.87 12.87M14.9 9.25002C14.7673 8.73076 14.4978 8.25654 14.1197 7.87668C13.7416 7.49681 13.2686 7.22518 12.75 7.09002M2 2.00002L22 22" stroke="black" stroke-width="2" stroke-linecap="round" stroke-linejoin="round"/>
</svg>
