<svg width="24" height="24" viewBox="0 0 24 24" fill="none" xmlns="http://www.w3.org/2000/svg">
<g clip-path="url(#clip0_152_7670)">
<path d="M10.4001 21.9C12.3228 22.2159 14.296 21.9632 16.0771 21.1729C17.8582 20.3827 19.3696 19.0893 20.4256 17.4517C21.4816 15.8141 22.0362 13.9037 22.0211 11.9552C22.0061 10.0067 21.4222 8.10507 20.3411 6.48396M13.5001 2.09996C11.5852 1.80754 9.62655 2.07757 7.86223 2.87726C6.0979 3.67694 4.60381 4.97184 3.5615 6.60461C2.5192 8.23739 1.97356 10.1377 1.99088 12.0748C2.0082 14.0118 2.58773 15.9021 3.65906 17.516M15.0001 12C15.0001 13.6568 13.6569 15 12.0001 15C10.3432 15 9.00006 13.6568 9.00006 12C9.00006 10.3431 10.3432 8.99996 12.0001 8.99996C13.6569 8.99996 15.0001 10.3431 15.0001 12ZM21.0001 4.99996C21.0001 6.10453 20.1046 6.99996 19.0001 6.99996C17.8955 6.99996 17.0001 6.10453 17.0001 4.99996C17.0001 3.89539 17.8955 2.99996 19.0001 2.99996C20.1046 2.99996 21.0001 3.89539 21.0001 4.99996ZM7.00006 19C7.00006 20.1045 6.10463 21 5.00006 21C3.89549 21 3.00006 20.1045 3.00006 19C3.00006 17.8954 3.89549 17 5.00006 17C6.10463 17 7.00006 17.8954 7.00006 19Z" stroke="black" stroke-width="2" stroke-linecap="round" stroke-linejoin="round"/>
</g>
<defs>
<clipPath id="clip0_152_7670">
<rect width="24" height="24" fill="white"/>
</clipPath>
</defs>
</svg>
