<svg width="24" height="24" viewBox="0 0 24 24" fill="none" xmlns="http://www.w3.org/2000/svg">
<path d="M11.9999 22.0002V13.0002M19.9999 13.5002V16.8702C20.0003 17.2477 19.897 17.618 19.7013 17.9407C19.5055 18.2634 19.2249 18.5262 18.8899 18.7002L12.8899 21.7802C12.615 21.9231 12.3098 21.9977 11.9999 21.9977C11.6901 21.9977 11.3849 21.9231 11.1099 21.7802L5.10994 18.7002C4.77502 18.5262 4.49437 18.2634 4.29862 17.9407C4.10287 17.618 3.99955 17.2477 3.99994 16.8702V13.5002M20.9099 8.84022L8.55994 2.23022C8.28123 2.08225 7.97049 2.00488 7.65494 2.00488C7.33939 2.00488 7.02865 2.08225 6.74994 2.23022L3.09994 4.13022C2.77084 4.31057 2.4955 4.57505 2.30207 4.89664C2.10864 5.21822 2.00403 5.58539 1.99895 5.96064C1.99386 6.33589 2.08848 6.70576 2.27313 7.03247C2.45778 7.35918 2.72584 7.63102 3.04994 7.82022L15.2699 14.7502C15.5667 14.9148 15.9005 15.0012 16.2399 15.0012C16.5793 15.0012 16.9131 14.9148 17.2099 14.7502L20.9999 12.5102C21.3174 12.3163 21.5782 12.0422 21.7561 11.7155C21.9341 11.3889 22.023 11.0211 22.0139 10.6493C22.0048 10.2774 21.898 9.91443 21.7042 9.59689C21.5104 9.27935 21.2365 9.01839 20.9099 8.84022ZM3.08994 8.84022L15.4399 2.23022C15.7186 2.08225 16.0294 2.00488 16.3449 2.00488C16.6605 2.00488 16.9712 2.08225 17.2499 2.23022L20.8999 4.13022C21.2317 4.30602 21.5108 4.56676 21.7088 4.8858C21.9067 5.20484 22.0164 5.57073 22.0265 5.94604C22.0367 6.32136 21.947 6.69265 21.7666 7.02194C21.5863 7.35123 21.3217 7.62671 20.9999 7.82022L8.72994 14.7502C8.43314 14.9148 8.09933 15.0012 7.75994 15.0012C7.42055 15.0012 7.08674 14.9148 6.78994 14.7502L2.99994 12.5102C2.68252 12.3163 2.42172 12.0422 2.24374 11.7155C2.06576 11.3889 1.97687 11.0211 1.98599 10.6493C1.99511 10.2774 2.10192 9.91443 2.2957 9.59689C2.48947 9.27935 2.76339 9.01839 3.08994 8.84022Z" stroke="black" stroke-width="2" stroke-linecap="round" stroke-linejoin="round"/>
</svg>
