<svg width="24" height="24" viewBox="0 0 24 24" fill="none" xmlns="http://www.w3.org/2000/svg">
<path d="M9 8.00011C7 11.0001 5 11.5001 2 12.0001L10 22.0001C12 21.0001 16 17.0001 16 15.0001M14.5 17.5001L4.5 15.0001M18.37 2.63011L14 7.00011L12.41 5.41011C12.0353 5.03761 11.5284 4.82852 11 4.82852C10.4716 4.82852 9.96473 5.03761 9.59 5.41011L8 7.00011L17 16.0001L18.59 14.4101C18.9625 14.0354 19.1716 13.5285 19.1716 13.0001C19.1716 12.4717 18.9625 11.9648 18.59 11.5901L17 10.0001L21.37 5.63011C21.7678 5.23228 21.9913 4.69272 21.9913 4.13011C21.9913 3.5675 21.7678 3.02793 21.37 2.63011C20.9722 2.23228 20.4326 2.00879 19.87 2.00879C19.3074 2.00879 18.7678 2.23228 18.37 2.63011Z" stroke="black" stroke-width="2" stroke-linecap="round" stroke-linejoin="round"/>
</svg>
