<svg width="24" height="24" viewBox="0 0 24 24" fill="none" xmlns="http://www.w3.org/2000/svg">
<path d="M8.99993 8.99995C8.99993 8.2043 9.316 7.44123 9.87861 6.87862C10.4412 6.31602 11.2043 5.99995 11.9999 5.99995C12.7956 5.99995 13.5586 6.31602 14.1212 6.87862C14.6839 7.44123 14.9999 8.2043 14.9999 8.99995M11.9999 11.9999V14.9999M10.9999 14.9999H12.9999M11.9999 18.9999V21.9999M18.9999 8.99995C19.0046 7.97921 18.786 6.9698 18.3594 6.04246C17.9329 5.11512 17.3086 4.29229 16.5305 3.63164C15.7524 2.971 14.8392 2.48852 13.855 2.21803C12.8707 1.94753 11.8392 1.89557 10.8328 2.06578C9.8263 2.23599 8.86924 2.62425 8.02867 3.20335C7.1881 3.78246 6.48434 4.53839 5.96674 5.41817C5.44913 6.29794 5.13019 7.28028 5.03228 8.29632C4.93437 9.31236 5.05985 10.3375 5.39993 11.2999C6.39993 14.3999 7.99993 18.9999 7.99993 18.9999H15.9999C15.9999 18.9999 17.5999 14.3999 18.5999 11.2999C18.8999 10.4999 18.9999 9.79995 18.9999 8.99995Z" stroke="black" stroke-width="2" stroke-linecap="round" stroke-linejoin="round"/>
</svg>
