<svg width="24" height="24" viewBox="0 0 24 24" fill="none" xmlns="http://www.w3.org/2000/svg">
<path d="M15 5.0002L19 9.0002M7 13.0002L2.8 8.7002C1.8 7.8002 1.8 6.3002 2.8 5.3002L5.4 2.7002C6.3 1.7002 7.8 1.7002 8.8 2.7002L13 7.0002M8 6.0002L10 4.0002M17 11.0002L21.3 15.2002C22.3 16.1002 22.3 17.6002 21.3 18.6002L18.7 21.2002C17.8 22.2002 16.3 22.2002 15.3 21.2002L11 17.0002M18 16.0002L20 14.0002M17 3.0002C17.2547 2.69923 17.5697 2.45425 17.925 2.28088C18.2803 2.1075 18.6681 2.00953 19.0636 1.99321C19.4592 1.97689 19.8538 2.04258 20.2224 2.18608C20.5909 2.32959 20.9254 2.54777 21.2043 2.82672C21.4833 3.10566 21.7006 3.43926 21.8425 3.80624C21.9845 4.17322 22.0478 4.56553 22.0286 4.95817C22.0094 5.35082 21.908 5.73518 21.7309 6.08676C21.5538 6.43834 21.3049 6.74943 21 7.0002L7.5 20.5002L2 22.0002L3.5 16.5002L17 3.0002Z" stroke="black" stroke-width="2" stroke-linecap="round" stroke-linejoin="round"/>
</svg>
