<svg width="24" height="24" viewBox="0 0 24 24" fill="none" xmlns="http://www.w3.org/2000/svg">
<g clip-path="url(#clip0_152_7556)">
<path d="M15 4.9998L19 8.9998M13 6.9998L8.70005 2.6998C8.24842 2.25036 7.6372 1.99805 7.00005 1.99805C6.36289 1.99805 5.75167 2.25036 5.30005 2.6998L2.70005 5.2998C2.2506 5.75143 1.99829 6.36265 1.99829 6.9998C1.99829 7.63695 2.2506 8.24818 2.70005 8.6998L7.00005 12.9998M8.00005 5.9998L10 3.9998M18 15.9998L20 13.9998M17 10.9998L21.3 15.2998C22.24 16.2398 22.24 17.7598 21.3 18.6998L18.7 21.2998C17.76 22.2398 16.24 22.2398 15.3 21.2998L11 16.9998M2.00005 21.9998L7.50005 20.4998L21.17 6.8298C21.7005 6.29937 21.9985 5.57995 21.9985 4.8298C21.9985 4.07966 21.7005 3.36024 21.17 2.8298C20.6396 2.29937 19.9202 2.00137 19.17 2.00137C18.4199 2.00137 17.7005 2.29937 17.17 2.8298L3.50005 16.4998L2.00005 21.9998Z" stroke="black" stroke-width="2" stroke-linecap="round" stroke-linejoin="round"/>
</g>
<defs>
<clipPath id="clip0_152_7556">
<rect width="24" height="24" fill="white"/>
</clipPath>
</defs>
</svg>
