<svg width="24" height="24" viewBox="0 0 24 24" fill="none" xmlns="http://www.w3.org/2000/svg">
<path d="M2.00002 14.0002H22M6.00002 14.0002V18.0002M10 14.0002V18.0002M14 14.0002V18.0002M18 14.0002V18.0002M18.5 8.0002C17.1 8.0002 15.9 7.2002 15.3 6.0002C14.732 4.42485 13.6081 3.11121 12.1396 2.30623C10.6712 1.50125 8.95925 1.26035 7.32565 1.62883C5.69206 1.99731 4.24931 2.94979 3.2686 4.30722C2.28789 5.66465 1.83677 7.33355 2.00002 9.0002V20.0002C2.00002 20.5306 2.21074 21.0393 2.58581 21.4144C2.96088 21.7895 3.46959 22.0002 4.00002 22.0002H20C20.5305 22.0002 21.0392 21.7895 21.4142 21.4144C21.7893 21.0393 22 20.5306 22 20.0002V11.5002C22 9.60021 20.4 8.0002 18.5 8.0002Z" stroke="black" stroke-width="2" stroke-linecap="round" stroke-linejoin="round"/>
</svg>
