<svg width="24" height="24" viewBox="0 0 24 24" fill="none" xmlns="http://www.w3.org/2000/svg">
<path d="M14.5309 12.4691L6.61888 20.3801C6.22105 20.778 5.68149 21.0015 5.11888 21.0015C4.55627 21.0015 4.0167 20.778 3.61888 20.3801C3.22105 19.9823 2.99756 19.4428 2.99756 18.8801C2.99756 18.3175 3.22105 17.778 3.61888 17.3801L11.5309 9.46814M15.6859 4.31414C14.1761 3.37363 12.4831 2.76616 10.7198 2.53232C8.95647 2.29848 7.16358 2.44365 5.46088 2.95814C5.3093 3.05464 5.18651 3.19021 5.10545 3.35057C5.02438 3.51094 4.98803 3.69019 5.0002 3.86947C5.01238 4.04876 5.07264 4.22144 5.17465 4.36938C5.27665 4.51731 5.41664 4.63503 5.57988 4.71014C7.85728 5.48797 9.99163 6.63419 11.8979 8.10314M19.6859 8.31414C20.6263 9.82391 21.2338 11.517 21.4676 13.2803C21.7014 15.0436 21.5563 16.8364 21.0419 18.5391C20.9453 18.6905 20.8098 18.813 20.6495 18.8939C20.4893 18.9748 20.3102 19.0111 20.1311 18.9989C19.952 18.9867 19.7795 18.9266 19.6316 18.8247C19.4838 18.7229 19.3661 18.5831 19.2909 18.4201C18.5132 16.1424 17.3669 14.0077 15.8979 12.1011M17.6999 3.70014C17.513 3.51692 17.2616 3.41429 16.9999 3.41429C16.7381 3.41429 16.4868 3.51692 16.2999 3.70014L11.6999 8.30014C11.5167 8.48707 11.414 8.73839 11.414 9.00014C11.414 9.2619 11.5167 9.51321 11.6999 9.70014L14.2999 12.3001C14.4868 12.4834 14.7381 12.586 14.9999 12.586C15.2616 12.586 15.5129 12.4834 15.6999 12.3001L20.2999 7.70014C20.4831 7.51321 20.5857 7.2619 20.5857 7.00014C20.5857 6.73839 20.4831 6.48707 20.2999 6.30014L17.6999 3.70014Z" stroke="black" stroke-width="2" stroke-linecap="round" stroke-linejoin="round"/>
</svg>
