<svg width="24" height="24" viewBox="0 0 24 24" fill="none" xmlns="http://www.w3.org/2000/svg">
<path d="M8 13.9999C7.44286 13.2571 7.10359 12.3738 7.0202 11.4489C6.93681 10.5241 7.1126 9.59438 7.52786 8.76385C7.94313 7.93332 8.58146 7.23483 9.37134 6.74666C10.1612 6.25849 11.0714 5.99992 12 5.99992C12.9286 5.99992 13.8388 6.25849 14.6287 6.74666C15.4185 7.23483 16.0569 7.93332 16.4721 8.76385C16.8874 9.59438 17.0632 10.5241 16.9798 11.4489C16.8964 12.3738 16.5571 13.2571 16 13.9999M17 18.4999C18.6054 17.4272 19.8234 15.8667 20.4739 14.0487C21.1244 12.2308 21.173 10.2518 20.6125 8.40412C20.052 6.55642 18.9122 4.93796 17.3613 3.78776C15.8105 2.63756 13.9308 2.0166 12 2.0166C10.0692 2.0166 8.18953 2.63756 6.63867 3.78776C5.08782 4.93796 3.94799 6.55642 3.38751 8.40412C2.82704 10.2518 2.87564 12.2308 3.52614 14.0487C4.17665 15.8667 5.39456 17.4272 7 18.4999M13 10.9999C13 11.5522 12.5523 11.9999 12 11.9999C11.4477 11.9999 11 11.5522 11 10.9999C11 10.4476 11.4477 9.99992 12 9.99992C12.5523 9.99992 13 10.4476 13 10.9999ZM11 16.9999C11 16.7347 11.1054 16.4803 11.2929 16.2928C11.4804 16.1053 11.7348 15.9999 12 15.9999C12.2652 15.9999 12.5196 16.1053 12.7071 16.2928C12.8946 16.4803 13 16.7347 13 16.9999C13 17.4999 12.66 19.9999 12.5 21.4999C12.5 21.6325 12.4473 21.7597 12.3536 21.8535C12.2598 21.9472 12.1326 21.9999 12 21.9999C11.8674 21.9999 11.7402 21.9472 11.6464 21.8535C11.5527 21.7597 11.5 21.6325 11.5 21.4999C11.34 19.9999 11 17.4999 11 16.9999Z" stroke="black" stroke-width="2" stroke-linecap="round" stroke-linejoin="round"/>
</svg>
