<svg width="24" height="24" viewBox="0 0 24 24" fill="none" xmlns="http://www.w3.org/2000/svg">
<path d="M10.0001 10V9C10.0001 8.46957 10.2108 7.96086 10.5859 7.58579C10.961 7.21071 11.4697 7 12.0001 7C12.5305 7 13.0392 7.21071 13.4143 7.58579C13.7894 7.96086 14.0001 8.46957 14.0001 9V10C14.0001 9.46957 14.2108 8.96086 14.5859 8.58579C14.961 8.21071 15.4697 8 16.0001 8C16.5305 8 17.0392 8.21071 17.4143 8.58579C17.7894 8.96086 18.0001 9.46957 18.0001 10V11C18.0001 10.4696 18.2108 9.96086 18.5859 9.58579C18.961 9.21071 19.4697 9 20.0001 9C20.5305 9 21.0392 9.21071 21.4143 9.58579C21.7894 9.96086 22.0001 10.4696 22.0001 11V14C22.0001 16.1217 21.1572 18.1566 19.657 19.6569C18.1567 21.1571 16.1218 22 14.0001 22H12.0001C9.2001 22 7.5001 21.14 6.0101 19.66L2.4101 16.06C2.06604 15.6789 1.88169 15.1802 1.89523 14.6669C1.90876 14.1537 2.11915 13.6653 2.48282 13.303C2.8465 12.9406 3.3356 12.7319 3.84888 12.7202C4.36215 12.7085 4.86027 12.8946 5.2401 13.24L7.0001 15M10.0001 9.5V4C10.0001 3.46957 9.78939 2.96086 9.41432 2.58579C9.03924 2.21071 8.53054 2 8.0001 2C7.46967 2 6.96096 2.21071 6.58589 2.58579C6.21082 2.96086 6.0001 3.46957 6.0001 4V14" stroke="black" stroke-width="2" stroke-linecap="round" stroke-linejoin="round"/>
</svg>
