<svg width="24" height="24" viewBox="0 0 24 24" fill="none" xmlns="http://www.w3.org/2000/svg">
<path d="M10.0001 4.5V4C10 3.70261 9.93363 3.40898 9.80574 3.14049C9.67786 2.872 9.49171 2.63541 9.26085 2.44794C9.02999 2.26047 8.76023 2.12685 8.4712 2.0568C8.18218 1.98675 7.88117 1.98204 7.5901 2.043M13.9001 8.4C13.8064 8.10041 13.6436 7.82708 13.4247 7.6021C13.2058 7.37713 12.937 7.20684 12.6401 7.105M21.7001 16.2C21.9019 15.4842 22.0028 14.7437 22.0001 14V11C22.0001 10.4696 21.7894 9.96086 21.4143 9.58579C21.0392 9.21071 20.5305 9 20.0001 9C19.4697 9 18.961 9.21071 18.5859 9.58579C18.2108 9.96086 18.0001 10.4696 18.0001 11V10C17.9999 9.57597 17.8649 9.16297 17.6147 8.82065C17.3645 8.47833 17.0119 8.2244 16.6079 8.09553C16.204 7.96665 15.7695 7.96951 15.3672 8.10369C14.965 8.23786 14.6158 8.49641 14.3701 8.842M7.0001 15L5.2001 13.2C4.81554 12.859 4.31448 12.6792 3.80088 12.6978C3.28728 12.7164 2.80055 12.9321 2.44167 13.2999C2.08279 13.6678 1.8793 14.1597 1.87342 14.6736C1.86754 15.1876 2.05973 15.684 2.4101 16.06L6.0001 19.7C6.77715 20.4907 7.71498 21.1053 8.75014 21.5021C9.7853 21.8989 10.8936 22.0687 12.0001 22H14.0001C15.0507 22 16.091 21.7931 17.0616 21.3911C18.0323 20.9891 18.9142 20.3999 19.6571 19.657M6.0001 6V14M2.0001 2L22.0001 22" stroke="black" stroke-width="2" stroke-linecap="round" stroke-linejoin="round"/>
</svg>
