<svg width="24" height="24" viewBox="0 0 24 24" fill="none" xmlns="http://www.w3.org/2000/svg">
<path d="M12 12V6M8 7.5C7.13458 8.32941 6.53271 9.39542 6.26956 10.5649C6.00642 11.7343 6.09365 12.9554 6.52039 14.0756C6.94712 15.1957 7.69442 16.1653 8.66896 16.8633C9.64351 17.5613 10.8021 17.9566 12 18C13.2214 18.0064 14.4157 17.6399 15.4232 16.9494C16.4308 16.259 17.2036 15.2775 17.6384 14.1361C18.0732 12.9947 18.1493 11.7477 17.8566 10.5619C17.5638 9.3761 16.9161 8.30788 16 7.5M22 12C22 17.5228 17.5228 22 12 22C6.47715 22 2 17.5228 2 12C2 6.47715 6.47715 2 12 2C17.5228 2 22 6.47715 22 12Z" stroke="black" stroke-width="2" stroke-linecap="round" stroke-linejoin="round"/>
</svg>
