<svg width="24" height="24" viewBox="0 0 24 24" fill="none" xmlns="http://www.w3.org/2000/svg">
<path d="M12 7V12M8 9C7.4928 9.75476 7.19491 10.6306 7.13673 11.5381C7.07856 12.4455 7.26217 13.3522 7.66885 14.1656C8.07552 14.9789 8.69069 15.6698 9.45159 16.1678C10.2125 16.6657 11.0919 16.9529 12 17C12.9364 17.0193 13.8591 16.7726 14.6609 16.2884C15.4627 15.8042 16.1106 15.1025 16.5295 14.2648C16.9484 13.427 17.121 12.4876 17.0273 11.5557C16.9335 10.6238 16.5773 9.73755 16 9M5 3H19C20.1046 3 21 3.89543 21 5V19C21 20.1046 20.1046 21 19 21H5C3.89543 21 3 20.1046 3 19V5C3 3.89543 3.89543 3 5 3Z" stroke="black" stroke-width="2" stroke-linecap="round" stroke-linejoin="round"/>
</svg>
