<svg width="24" height="24" viewBox="0 0 24 24" fill="none" xmlns="http://www.w3.org/2000/svg">
<path d="M6.99011 3.3398C8.89754 2.23703 11.1158 1.79508 13.3002 2.0826C15.4847 2.37012 17.513 3.37102 19.0701 4.9298L13.4101 10.5898M4.00011 5.9998H4.01011M2.29011 9.6198C1.9152 11.1469 1.90569 12.7408 2.26233 14.2722C2.61898 15.8037 3.33174 17.2294 4.34274 18.4337C5.35374 19.638 6.63449 20.5869 8.08101 21.2034C9.52752 21.8199 11.099 22.0866 12.6679 21.9819C14.2369 21.8771 15.759 21.4038 17.1107 20.6005C18.4624 19.7972 19.6056 18.6864 20.4475 17.3584C21.2894 16.0303 21.8063 14.5225 21.9562 12.9572C22.1061 11.392 21.8847 9.81347 21.3101 8.3498M16.2401 7.7598C15.6646 7.18097 14.9771 6.72564 14.2196 6.42167C13.462 6.11771 12.6504 5.97151 11.8345 5.99201C11.0185 6.01251 10.2153 6.19929 9.47397 6.54091C8.73267 6.88253 8.06886 7.37181 7.52317 7.97882C6.97748 8.58583 6.56137 9.29779 6.30032 10.0712C6.03926 10.8445 5.93875 11.663 6.00493 12.4766C6.0711 13.2901 6.30257 14.0816 6.68518 14.8026C7.06779 15.5236 7.59349 16.159 8.23011 16.6698M12.0001 17.9998H12.0101M17.9901 11.6598C18.0445 12.6112 17.8715 13.5618 17.4855 14.433C17.0994 15.3043 16.5114 16.071 15.7701 16.6698M14.0001 11.9998C14.0001 13.1044 13.1047 13.9998 12.0001 13.9998C10.8955 13.9998 10.0001 13.1044 10.0001 11.9998C10.0001 10.8952 10.8955 9.9998 12.0001 9.9998C13.1047 9.9998 14.0001 10.8952 14.0001 11.9998Z" stroke="black" stroke-width="2" stroke-linecap="round" stroke-linejoin="round"/>
</svg>
