<svg width="24" height="24" viewBox="0 0 24 24" fill="none" xmlns="http://www.w3.org/2000/svg">
<path d="M12.0001 12.0001H12.0101M7.50011 4.20013C7.20011 3.70013 6.60011 3.50013 6.20011 3.80013C3.90011 5.50013 2.30011 8.10013 2.00011 11.0001C1.90011 11.5001 2.40011 12.0001 3.00011 12.0001H8.00011C8.00011 10.5001 8.80011 9.20013 10.0001 8.60013C8.90011 6.70013 8.00011 5.10013 7.50011 4.20013ZM21.0001 12.0001C21.6001 12.0001 22.0001 11.6001 22.0001 11.0001C21.7001 8.10013 20.2001 5.50013 17.9001 3.90013C17.5001 3.60013 16.8001 3.70013 16.6001 4.20013C16.0001 5.10013 15.1001 6.70013 14.0001 8.50013C15.2001 9.20013 16.0001 10.5001 16.0001 12.0001H21.0001ZM7.50011 19.8001C7.20011 20.3001 7.40011 20.9001 7.90011 21.1001C10.5001 22.3001 13.5001 22.3001 16.1001 21.1001C16.6001 20.9001 16.8001 20.3001 16.5001 19.8001C16.0001 18.9001 15.1001 17.3001 14.0001 15.5001C12.8001 16.2001 11.2001 16.2001 10.0001 15.5001C8.90011 17.3001 8.00011 18.9001 7.50011 19.8001Z" stroke="black" stroke-width="2" stroke-linecap="round" stroke-linejoin="round"/>
</svg>
