<svg width="24" height="24" viewBox="0 0 24 24" fill="none" xmlns="http://www.w3.org/2000/svg">
<path d="M4.9001 16.0999C1.0001 12.1999 1.0001 5.7999 4.9001 1.8999M7.8001 4.6999C6.8514 5.68288 6.25762 6.95417 6.11272 8.31258C5.96782 9.67099 6.28009 11.0389 7.0001 12.1999M12.0001 10.9999C13.1047 10.9999 14.0001 10.1045 14.0001 8.9999C14.0001 7.89533 13.1047 6.9999 12.0001 6.9999C10.8955 6.9999 10.0001 7.89533 10.0001 8.9999C10.0001 10.1045 10.8955 10.9999 12.0001 10.9999ZM12.0001 10.9999L8.0001 21.9999M12.0001 10.9999L16.0001 21.9999M16.2001 4.7999C18.2001 6.7999 18.4601 9.9099 17.0001 12.2699M19.1001 1.8999C20.0271 2.82504 20.7626 3.92393 21.2644 5.13366C21.7662 6.34339 22.0245 7.64022 22.0245 8.9499C22.0245 10.2596 21.7662 11.5564 21.2644 12.7661C20.7626 13.9759 20.0271 15.0748 19.1001 15.9999M9.5001 17.9999H14.5001" stroke="black" stroke-width="2" stroke-linecap="round" stroke-linejoin="round"/>
</svg>
