<svg width="24" height="24" viewBox="0 0 24 24" fill="none" xmlns="http://www.w3.org/2000/svg">
<path d="M4.925 19.2C1.025 15.3 1.025 8.9 4.925 5M7.825 16.3C5.525 14 5.525 10.2 7.825 7.8M16.225 7.9C18.525 10.2 18.525 14 16.225 16.4M19.125 5C23.025 8.9 23.025 15.2 19.125 19.1M14.025 12.1C14.025 13.2046 13.1296 14.1 12.025 14.1C10.9204 14.1 10.025 13.2046 10.025 12.1C10.025 10.9954 10.9204 10.1 12.025 10.1C13.1296 10.1 14.025 10.9954 14.025 12.1Z" stroke="black" stroke-width="2" stroke-linecap="round" stroke-linejoin="round"/>
</svg>
