<svg width="24" height="24" viewBox="0 0 24 24" fill="none" xmlns="http://www.w3.org/2000/svg">
<path d="M6.01 17.9998H6M10.01 17.9998H10M15 9.99983V13.9998M17.84 7.16983C17.4685 6.79792 17.0274 6.50289 16.5418 6.30159C16.0562 6.10029 15.5357 5.99668 15.01 5.99668C14.4843 5.99668 13.9638 6.10029 13.4782 6.30159C12.9926 6.50289 12.5515 6.79792 12.18 7.16983M20.66 4.33983C19.1599 2.84067 17.1258 1.99854 15.005 1.99854C12.8842 1.99854 10.8501 2.84067 9.35 4.33983M4 13.9998H20C21.1046 13.9998 22 14.8953 22 15.9998V19.9998C22 21.1044 21.1046 21.9998 20 21.9998H4C2.89543 21.9998 2 21.1044 2 19.9998V15.9998C2 14.8953 2.89543 13.9998 4 13.9998Z" stroke="black" stroke-width="2" stroke-linecap="round" stroke-linejoin="round"/>
</svg>
