<svg width="24" height="24" viewBox="0 0 24 24" fill="none" xmlns="http://www.w3.org/2000/svg">
<path d="M2.05005 2.0498H4.05005L6.71005 14.4698C6.80763 14.9247 7.06072 15.3313 7.42576 15.6197C7.7908 15.908 8.24495 16.0602 8.71005 16.0498H18.49C18.9452 16.0491 19.3865 15.8931 19.7411 15.6076C20.0956 15.3222 20.3422 14.9243 20.4401 14.4798L22.09 7.0498H5.12005M9.00005 20.9998C9.00005 21.5521 8.55233 21.9998 8.00005 21.9998C7.44776 21.9998 7.00005 21.5521 7.00005 20.9998C7.00005 20.4475 7.44776 19.9998 8.00005 19.9998C8.55233 19.9998 9.00005 20.4475 9.00005 20.9998ZM20 20.9998C20 21.5521 19.5523 21.9998 19 21.9998C18.4478 21.9998 18 21.5521 18 20.9998C18 20.4475 18.4478 19.9998 19 19.9998C19.5523 19.9998 20 20.4475 20 20.9998Z" stroke="black" stroke-width="2" stroke-linecap="round" stroke-linejoin="round"/>
</svg>
