<svg width="24" height="24" viewBox="0 0 24 24" fill="none" xmlns="http://www.w3.org/2000/svg">
<path d="M13 8.3201C13.6392 9.44124 13.9754 10.7095 13.9754 12.0001C13.9754 13.2907 13.6392 14.559 13 15.6801M16.46 6.2101C17.4591 7.97628 17.9841 9.97093 17.9841 12.0001C17.9841 14.0293 17.4591 16.0239 16.46 17.7901M19.91 4.1001C21.2876 6.50473 22.0132 9.22749 22.0149 11.9988C22.0167 14.77 21.2945 17.4937 19.92 19.9001M3 6.0001H8C8.55229 6.0001 9 6.44781 9 7.0001V17.0001C9 17.5524 8.55229 18.0001 8 18.0001H3C2.44772 18.0001 2 17.5524 2 17.0001V7.0001C2 6.44781 2.44772 6.0001 3 6.0001Z" stroke="black" stroke-width="2" stroke-linecap="round" stroke-linejoin="round"/>
</svg>
