<svg width="24" height="24" viewBox="0 0 24 24" fill="none" xmlns="http://www.w3.org/2000/svg">
<path d="M8.8 19.9998V15.8998L10.7 16.0998C11.2531 16.0691 11.7766 15.8398 12.1742 15.4539C12.5717 15.0681 12.8167 14.5518 12.864 13.9998V8.29983C12.8706 6.85918 12.3047 5.47489 11.2907 4.4515C10.2767 3.42812 8.89766 2.84946 7.457 2.84283C6.01634 2.8362 4.63206 3.40214 3.60867 4.41615C2.58529 5.43016 2.00663 6.80918 2 8.24983C2 11.0498 2.656 11.3038 3 12.7998C3.23248 13.7033 3.24243 14.6497 3.029 15.5578L2 19.9998M19.8 17.7998C21.2058 16.3939 21.9958 14.4872 21.9964 12.499C21.997 10.5107 21.208 8.60361 19.803 7.19683M17 14.9998C17.3272 14.6727 17.5863 14.284 17.7622 13.8561C17.9382 13.4283 18.0277 12.9698 18.0253 12.5071C18.023 12.0445 17.929 11.5869 17.7487 11.1608C17.5684 10.7347 17.3054 10.3486 16.975 10.0248" stroke="black" stroke-width="2" stroke-linecap="round" stroke-linejoin="round"/>
</svg>
