<svg width="24" height="24" viewBox="0 0 24 24" fill="none" xmlns="http://www.w3.org/2000/svg">
<path d="M10.0649 12.4931L3.88491 13.8111C3.64503 13.8632 3.39429 13.8187 3.18694 13.6873C2.97959 13.556 2.83229 13.3482 2.77691 13.1091L2.23991 10.9591C2.17677 10.7001 2.21262 10.4268 2.34044 10.1928C2.46825 9.95881 2.67883 9.78097 2.93091 9.69412L16.4349 5.25412M13.5599 11.7471L17.8919 10.8231M15.9999 21.0001L12.8949 14.7901M6.15791 8.63312L7.2719 13.0891M7.99991 21.0001L11.1049 14.7901M16.4849 5.94012C16.3564 5.4256 16.4374 4.88109 16.7103 4.42634C16.9831 3.97158 17.4254 3.64382 17.9399 3.51512L19.0299 3.24312C19.287 3.17898 19.5591 3.21951 19.7863 3.35583C20.0136 3.49214 20.1774 3.71308 20.2419 3.97012L21.7569 10.0301C21.8213 10.2874 21.781 10.5597 21.6446 10.7872C21.5083 11.0147 21.2872 11.1787 21.0299 11.2431L19.9399 11.5151C19.4254 11.6437 18.8809 11.5626 18.4261 11.2897C17.9714 11.0169 17.6436 10.5746 17.5149 10.0601L16.4849 5.94012ZM13.9999 13.0001C13.9999 14.1047 13.1045 15.0001 11.9999 15.0001C10.8953 15.0001 9.99991 14.1047 9.99991 13.0001C9.99991 11.8955 10.8953 11.0001 11.9999 11.0001C13.1045 11.0001 13.9999 11.8955 13.9999 13.0001Z" stroke="black" stroke-width="2" stroke-linecap="round" stroke-linejoin="round"/>
</svg>
