<svg width="24" height="24" viewBox="0 0 24 24" fill="none" xmlns="http://www.w3.org/2000/svg">
<path d="M9.3 6.19984C10.0821 6.77645 11.0283 7.08753 12 7.08753C12.9717 7.08753 13.9179 6.77645 14.7 6.19984M7.9 10.6998C8.8 11.4998 10.3 11.9998 12 11.9998C13.7 11.9998 15.2 11.4998 16.1 10.6998M7.5 12.1998L2.8 14.8998C2.3 15.1998 2 15.5998 2 15.9998C2 16.3998 2.3 16.7998 2.8 17.0998L10.4 21.5998C11.3 22.0998 12.5 22.0998 13.4 21.5998L21 17.0998C21.7 16.7998 22 16.3998 22 15.9998C22 15.5998 21.7 15.1998 21.2 14.8998L16.5 12.0998M13.9 3.49984C13.833 3.05109 13.61 2.6403 13.2702 2.33962C12.9304 2.03894 12.4955 1.86758 12.042 1.85565C11.5884 1.84371 11.1451 1.99196 10.79 2.27435C10.4348 2.55675 10.1905 2.95523 10.1 3.39984L7.1 13.3998C7 13.5998 7 13.7998 7 13.9998C7 15.6998 9.2 16.9998 12 16.9998C14.8 16.9998 17 15.6998 17 13.9998C17 13.7998 17 13.5998 16.9 13.4998L13.9 3.49984Z" stroke="black" stroke-width="2" stroke-linecap="round" stroke-linejoin="round"/>
</svg>
