<svg width="24" height="24" viewBox="0 0 24 24" fill="none" xmlns="http://www.w3.org/2000/svg">
<path d="M12.0002 19V22M8.00017 19C7.14217 19.0019 6.30629 18.7279 5.61594 18.2184C4.92559 17.7089 4.41736 16.9909 4.16629 16.1705C3.91523 15.35 3.93463 14.4706 4.22163 13.662C4.50863 12.8534 5.04803 12.1586 5.76017 11.68C5.3211 11.1314 5.05733 10.4633 5.00319 9.76273C4.94904 9.06214 5.10702 8.36148 5.45658 7.75191C5.80613 7.14235 6.33107 6.65212 6.96309 6.34501C7.5951 6.0379 8.30492 5.92813 9.00017 6.03V6C9.00017 5.20435 9.31624 4.44129 9.87885 3.87868C10.4415 3.31607 11.2045 3 12.0002 3C12.7958 3 13.5589 3.31607 14.1215 3.87868C14.6841 4.44129 15.0002 5.20435 15.0002 6V6.04C15.6954 5.93813 16.4052 6.0479 17.0373 6.35501C17.6693 6.66212 18.1942 7.15235 18.5438 7.76191C18.8933 8.37148 19.0513 9.07214 18.9972 9.77273C18.943 10.4733 18.6792 11.1414 18.2402 11.69C18.9479 12.1702 19.483 12.8645 19.7671 13.6712C20.0512 14.4778 20.0693 15.3543 19.8188 16.1719C19.5682 16.9896 19.0622 17.7055 18.3749 18.2144C17.6877 18.7234 16.8554 18.9987 16.0002 19H8.00017Z" stroke="black" stroke-width="2" stroke-linecap="round" stroke-linejoin="round"/>
</svg>
