<svg width="24" height="24" viewBox="0 0 24 24" fill="none" xmlns="http://www.w3.org/2000/svg">
<path d="M10.4999 13.5C9.58232 13.0794 8.57343 12.8971 7.56664 12.9699C6.55986 13.0428 5.58773 13.3685 4.74025 13.9169C3.89277 14.4652 3.19734 15.2185 2.71834 16.1071C2.23933 16.9956 1.99224 17.9906 1.99993 19M21.6999 16.4L20.7999 16.1M15.1999 13.9L14.2999 13.6M16.5999 18.7L16.8999 17.8M19.0999 12.2L19.3999 11.3M19.5999 18.7L19.1999 17.7M16.7999 12.3L16.3999 11.3M14.2999 16.6L15.2999 16.2M20.6999 13.8L21.6999 13.4M20.9999 15C20.9999 16.6569 19.6568 18 17.9999 18C16.3431 18 14.9999 16.6569 14.9999 15C14.9999 13.3431 16.3431 12 17.9999 12C19.6568 12 20.9999 13.3431 20.9999 15ZM11.9999 9C11.9999 11.2091 10.2091 13 7.99993 13C5.79079 13 3.99993 11.2091 3.99993 9C3.99993 6.79086 5.79079 5 7.99993 5C10.2091 5 11.9999 6.79086 11.9999 9Z" stroke="black" stroke-width="2" stroke-linecap="round" stroke-linejoin="round"/>
</svg>
