<svg width="24" height="24" viewBox="0 0 24 24" fill="none" xmlns="http://www.w3.org/2000/svg">
<path d="M15.9999 2L13.6999 4.3C13.1502 4.86079 12.8423 5.61474 12.8423 6.4C12.8423 7.18526 13.1502 7.93921 13.6999 8.5L15.4999 10.3C16.0607 10.8497 16.8147 11.1576 17.5999 11.1576C18.3852 11.1576 19.1391 10.8497 19.6999 10.3L21.9999 8M14.9999 15L3.29992 3.3C2.9008 3.69105 2.58373 4.15782 2.36726 4.67295C2.1508 5.18809 2.03931 5.74123 2.03931 6.3C2.03931 6.85877 2.1508 7.41191 2.36726 7.92705C2.58373 8.44218 2.9008 8.90895 3.29992 9.3L10.5999 16.6C11.2999 17.3 12.5999 17.3 13.3999 16.6L14.9999 15ZM14.9999 15L21.9999 22M2.09992 21.8L8.49992 15.5M18.9999 5L11.9999 12" stroke="black" stroke-width="2" stroke-linecap="round" stroke-linejoin="round"/>
</svg>
