<svg width="24" height="24" viewBox="0 0 24 24" fill="none" xmlns="http://www.w3.org/2000/svg">
<path d="M1.9999 2C5.01851 4.40804 7.47664 7.44442 9.20352 10.8982C10.9304 14.352 11.8846 18.1403 11.9999 22C12.8999 15.18 13.4999 12.5 15.9999 8M15.9999 8C19.9999 8 21.9999 6 21.9999 2C17.9999 2 15.9999 4 15.9999 8ZM17.4099 3.6C15.3347 2.26507 12.8393 1.74449 10.4035 2.13837C7.96763 2.53226 5.76343 3.81279 4.21474 5.73372C2.66606 7.65465 1.88224 10.0803 2.01404 12.5443C2.14584 15.0082 3.18394 17.3364 4.9287 19.0812C6.67346 20.826 9.00169 21.8641 11.4656 21.9959C13.9296 22.1277 16.3553 21.3438 18.2762 19.7952C20.1971 18.2465 21.4776 16.0423 21.8715 13.6065C22.2654 11.1706 21.7448 8.67517 20.4099 6.6" stroke="black" stroke-width="2" stroke-linecap="round" stroke-linejoin="round"/>
</svg>
