<svg width="24" height="24" viewBox="0 0 24 24" fill="none" xmlns="http://www.w3.org/2000/svg">
<path d="M18 16.9802H12.01C10.91 16.9802 10.06 17.9202 9.53 18.8802C9.11045 19.6674 8.43979 20.2918 7.62462 20.6541C6.80945 21.0165 5.89656 21.0959 5.03107 20.8798C4.16558 20.6637 3.39715 20.1645 2.84795 19.4616C2.29874 18.7586 2.00028 17.8922 2 17.0002C2.01 16.3002 2.2 15.6002 2.57 15.0002M6 17.0002L9.13 11.2202C9.66 10.2502 9.23 9.04018 8.63 8.12018C8.34681 7.66728 8.15721 7.16225 8.07236 6.63489C7.98751 6.10753 8.00915 5.56851 8.13599 5.04965C8.26283 4.53078 8.49231 4.04257 8.81088 3.61383C9.12946 3.18509 9.53068 2.82449 9.99087 2.55332C10.4511 2.28215 10.9609 2.10589 11.4903 2.03495C12.0197 1.96401 12.558 1.99982 13.0733 2.14026C13.5887 2.28071 14.0707 2.52296 14.4909 2.8527C14.9111 3.18245 15.261 3.59301 15.52 4.06018M12 6.00018L15.13 11.7302C15.66 12.7002 16.9 13.0002 18 13.0002C19.0609 13.0002 20.0783 13.4216 20.8284 14.1718C21.5786 14.9219 22 15.9393 22 17.0002C22 18.061 21.5786 19.0785 20.8284 19.8286C20.0783 20.5788 19.0609 21.0002 18 21.0002" stroke="black" stroke-width="2" stroke-linecap="round" stroke-linejoin="round"/>
</svg>
